<svg xmlns="http://www.w3.org/2000/svg" viewBox="0 0 7329.54 8039.86"><defs><style>.a{fill:#cecccb;}.b{fill:#3ba5dd;}.c{fill:#777473;}.d{fill:#8cc346;}.e{fill:#f9eb24;}.f{fill:#fff;}.g{fill:#7fc351;}.h{fill:#6d6e71;}</style></defs><title>logo</title><path class="a" d="M9523.23,6140.82l280.19,485.31a4707.57,4707.57,0,0,0,239.78-784,4701,4701,0,0,0-802.1-190Z" transform="translate(-4499.86 -2851.68)"/><path class="b" d="M7987.61,4189.49q97.94,6.33,193.93,19.41c648.4,87.47,1226.91,397.09,1656.64,849.8q93.7,98.71,177.68,206.18c371.67,475.87,594,1073.77,594,1723,0,511.61-138.35,991.23-378.6,1404.63,382.8-439.79,628.39-1001.52,669.94-1618.64,4.13-61.34,7-123,7-185.39,0-.44,0-.87,0-1.32,0-731.45-287.21-1396.69-754.08-1890.32q-92.62-97.91-194.39-186.5c-483.81-421.12-1115.06-677-1805.34-677-825.86,0-1567.39,365.9-2072.56,943.52,475.85-371.67,1073.76-594,1723-594C7866.29,4182.88,7927.11,4185.57,7987.61,4189.49Z" transform="translate(-4499.86 -2851.68)"/><path class="c" d="M8372.32,9735.1q-97.94-6.33-193.93-19.41c-648.4-87.47-1226.91-397.1-1656.63-849.81q-93.67-98.68-177.61-206.11c-371.68-475.88-594-1073.81-594-1723,0-511.65,138.36-991.32,378.65-1404.74-382.85,439.8-628.48,1001.58-670,1618.75-4.13,61.34-7,123-7,185.38,0,.45,0,.89,0,1.33,0,731.46,287.22,1396.7,754.11,1890.33q92.6,97.92,194.4,186.5c483.81,421.11,1115.06,677,1805.35,677,825.83,0,1567.36-365.91,2072.54-943.53-475.87,371.67-1073.77,594-1723,594C8493.64,9741.7,8432.81,9739,8372.32,9735.1Z" transform="translate(-4499.86 -2851.68)"/><path class="d" d="M5407.16,7154.64q6.33-97.92,19.42-193.91c87.47-648.41,397.1-1226.93,849.82-1656.67q98.71-93.69,206.17-177.64c475.87-371.67,1073.77-594,1723-594,511.63,0,991.28,138.36,1404.69,378.64-439.8-382.83-1001.56-628.44-1618.73-670-61.33-4.13-123-7-185.39-7,0,0-.87,0-1.32,0-731.45,0-1396.69,287.21-1890.32,754.09q-97.9,92.59-186.47,194.36c-421.14,483.82-677,1115.09-677,1805.38,0,825.87,365.93,1567.42,943.56,2072.59-371.7-475.88-594-1073.8-594-1723C5400.55,7276,5403.25,7215.14,5407.16,7154.64Z" transform="translate(-4499.86 -2851.68)"/><path class="e" d="M10952.77,6769.93q-6.33,97.93-19.42,193.93c-87.46,648.39-397.07,1226.9-849.77,1656.63q-98.69,93.68-206.13,177.63c-475.88,371.69-1073.8,594-1723,594-511.63,0-991.27-138.36-1404.69-378.63,439.8,382.83,1001.55,628.44,1618.68,670,61.35,4.13,123,7,185.39,7,.45,0,.87,0,1.32,0,731.46,0,1396.71-287.21,1890.34-754.1q97.92-92.61,186.5-194.39c421.1-483.81,677-1115.06,677-1805.34,0-825.84-365.9-1567.37-943.51-2072.55,371.67,475.87,594,1073.77,594,1723C10959.37,6648.62,10956.68,6709.43,10952.77,6769.93Z" transform="translate(-4499.86 -2851.68)"/><circle class="b" cx="8220.31" cy="6869.47" r="1044.91" transform="translate(-6557.26 995.9) rotate(-23.5)"/><path class="f" d="M8459.74,7890.19a1043.4,1043.4,0,0,1-354.4,21.31c-574.57-63.4-990.45-582.43-927-1157,30.71-278.34,168-528.05,386.5-703.15s492.16-254.62,770.5-223.91c574.57,63.4,990.45,582.42,927.05,1157C9212.4,7437.08,8879.62,7791.28,8459.74,7890.19ZM7980.68,5855.37c-148.67,35-288.87,103-411.6,201.34-217.1,174-353.46,422-384,698.54-63,570.81,350.16,1086.43,921,1149.41s1086.43-350.17,1149.42-921-350.17-1086.44-921-1149.42A1042.53,1042.53,0,0,0,7980.68,5855.37Z" transform="translate(-4499.86 -2851.68)"/><path class="g" d="M8228.93,6653.4s10.64,17.26,19.17,22,17,10.64,17,10.64l11.25,4.78,3.1,8.31,7.61,7,4.23,7.8,1.82,10,7.63,7.4,7.19.79,8.38-1.08,3.23-2.13,6.63-6.35,2.71-6.2,4.57-4.17,4.38,10.73,6.41,3.29,5.19,5.32,2.91,9.54,6.35,3.54,5.44,1.79,7.21,6.82s0,7,2.75,7.33c0,0,.37,5.59,3.11,8s1.24,27.53,14.18,45.91l.92,7s21.55,18.56,38.49,23.78c0,0-.6,2.86,1.06,4.46s2.18,5.65,2.18,5.65l1.25.94.87,4.19,2.57,6.32,2.94,4,3.52,1.37,3.84,6.22,3.93-.34,0,3.11,5.3,5.08,7.88,5.66,7.12-.95,5.1,1.36,9-1.72,3.15-3-.89-6.6-2.72-5.24-3.81-4.14-3.34-3-2.47-1.47,1-5.33-.1-4.81-2.41-2.49-3.37-2.18-.55-2.24-2.56-.85s-9-24.57-45.8-25.39c0,0-.87-7.45-7.17-10.55s-.7-5.14-3.5-4.12-1.55-6.47-1.55-6.47.69-3.74-8.07-5-8.73-20.74-8.73-20.74l-3.3-30.31s41.79,5.6,49.58,22.57c0,0,2,2.79,8.93,2.83s13.52,1.62,14.79,9.39,12,16.82,17.29-2.35,15.72-28.17,15.72-28.17,19.83-13.07,5.17-37.66c0,0-9.37-5.44-9.4-11.75,0-3.06-2-4.05-2-4.05s-3.31-6.72-8.19-6.62c0,0-3-13.63-15.69-11.64,0,0,2.56-3-5.86-3.33,0,0-17.28-18.71-35.37-21.13,0,0,3.74-3.13-3.51-14.24,0,0,4-32.63,14-32.09s19.5-2.33,21.87,12.61l-3.07,5.29s-3.78,3.81-1.54,7,1,2.8,1,2.8a7,7,0,0,0,6.91,5.57s5.61,14.45,18.06-4.87l.33-9.35s2.29-6.69-10.73-15.46,8.22-18.16,9-18.5,2.66-4.93,2.66-4.93,30.34-11.43,29.56-23.48c0,0,4.67,1.3,4.29-2.93s36-22.54,13.48-105.55c0,0-7.81-25.91-36.3-31.79,0,0-4.3-12.55-17.87-12.48s-1.36-.29-1.36-.29,3.87-9.46-13.65-10.83c0,0-18.61-1.77-5.79-28.33,0,0,15.27-5.2-3-13.94,0,0-24.35,8.1-25.27,19,0,0-4.05.86-5.33-2.9,0,0-7.9-10.65-18.44-4.63s-18.46-14.36-8.85-22.06,6.11-3.58,7.95-11.56,3.46-9.87,6.54-7.08,7.54.83,7.54.83,10.3.1,6.25,9.3c0,0,11.71,9.81,19.13-11.41s26.08-41.77,26.08-41.77l6.65-14.62,28.64-.41s8.84,2.76,8-12.78-8.12-34.42-8.12-34.42l.76-10.28-4.27-1.12.68-3.88-5.8-7.34-1.72-10.73-25.76-20.93-14.71-10.1-11.14-11.71-9.93-4.75-12-1.32-11.17-1.23-9,4.94-8.38,4.27-9.49-1-5-5.47s-6.11,1.59-6.95,1.49-18-13.57-18-13.57-.91-14.79-1.32-16.25-4.66-9-4.66-9l-1.87-13.77.33-8.16,7.22-6.55,14.73-5.46,20-2.23,11.32-5.32,5.58.62,14.12-5.05,10.37,3.29,10.24-3.16,4.84-2.86-13.88-12.55-5.19-11.87,9-9.75,15.39,4,9.7,1.07,4.4,2.32,4.35-4.18.09-3.38-8-11.8,14.68,2.64,12,7.54,1.36,10.6,4.31,8.1,2.34,8.24,5.92,2,3.87,5.23s-2.2,12.8-2.58,13.73,8.3,9.23,8.3,9.23l16.78,9.25,17.35,9.21,20.51,6.22,16.6,11.16,19.61,6.4,15,5.9-17.41-22.83-4.9-6.78-4.94-9,2.76-5-12.61-5.6-10.32-6.3-10.19-11-18.35-4.31-14.8-1.63-6.2-8.06-4.43-13.44,17.52-7.67,9-4.83,6.42.71,10.41-2.54,1.3-11.82,1.83-16.57,20.72-3-19.46-8.36-25-.5-7.64-7.62,2.26-7.66,2.07-4.86,17-1.51,15.69,1.17,13.9,2.1,6.95,1,8.93-1.56,2.16-1.46-20.13-7.31-34.22-7.45-60-4.36-29.93-.19L8413.5,5937l-40.07,4.64,1.93,3,2.11,1.36,2.89,2,1.18,4.65-6.95,1.49-12.34-.8-22.55-.51-24,2.44-8,6.18s-26.31-2.27-28.34-1.82-31.62-.27-31.62-.27-16.65,2.4-17.52,2.59-18.36,2.5-18.36,2.5-15.38-1.41-16.5-1.54-23,.58-24.69.95-18.45,3.33-20.44,3.4l-20.41.57-14.82,1.19,4.5,7.84,2.73,6-16.78,3.52-18.88,4.7-3.46,8.35-20.75,6.22-15.79-8-13-5.42-13.11-1.51s-12,1-12.91,1.78-13.49,7-13.49,7-7.57,2-8.43,2.18-18.89,4.77-18.89,4.77l-11.45-1.26s-7.74,1-8.46,2.38-7.57,2-7.57,2l-11.57-.15s.77-1.89-2,.06-12.35,4.62-12.35,4.62l-.21,1.91s-3.07,4.46-3.75,5.52-7.28,4.41-7.28,4.41l-4.37,5.89-9.18-.73a10.55,10.55,0,0,1,.34-3.07c.4-1.09,4.38-12,4.38-12l2.8-4.42,4.18-9.71-4.12-6.23s-4.83-1.23-7.06-.78-9.56,1.62-9.56,1.62l-13.84.6-5.42,3-13,.25-5.65-.62-7.58,2.11-6.78-1.21-6.09,3.85-4.21,4.27-.47,4.26-3.38,3.09L7812,6020s-3.09,1.78-3.72,1.71a41.39,41.39,0,0,0-4.53.73l-1.56.06-2.37,1-1,2-1.88,1.06-2.24,1.09-3.2.8h-.94l-1.22,2.27-1,.21-1.75.54-1.32,1.7-2,2-2.18,1.31-2.81.33-2.7.12-.17,1.56-1.08,1.46-1.42,0-.49-.08-.88.89-1.54,2.44-2,1.18-2,1.77-2,1.26-2.38,1.08-1,1.59-.51,1.14-1.56.52-.87.06-.95,5-1.06,4.26-2.21,5.9-.74,2.88L7751,6071l-2.68,1.68-3.61.85-3.26.27-.92,1.12-2.46,1.78-2.81,1.74-4.67,3-4,2.18-1.11,3,.3,3.07-.39,2.26,6.09-.14,1.73,1,.85,2.53.1,3-5.55.82-13,5.9-2.29.95-4,2.6-5,2.55-4.75-.45h-3.18l-1.9,2.47-1.55,6.33.58,2.4,2.65,2.2,1.43,2.42,2.66,4.74,1.13,3.8,5.14,2.62,1.29,1.84,4.48,1,2.07-.83,3.84-.85,2.63.5-1.33,5.65.37,5,2.22,7.45,1.26,5.86-.47,4.26c0,.21-2.18,5.69-2.18,5.69l-4.35,5.54-7.65,4-3.9,1.55-6.48-1.14L7696,6181l1.54-3.72,3-3.2,2.94-4.2,2.83-5.13,1-6.31-1.25-2.75-2-4-4-3.55-8.8-9.87s-5-6.28-5-6.49-2.6-4.62-2.6-4.62l-3.68-7-.77-5.83-16.4-1.6-.1,2.56-1.51.89-1.47-.16-1.27,3-2,2.19-2.33,1.27-.26,2.4,3.18,1.9-.44,2.71-1,3.92-1.22,9.12,1.39,5.31,2.51,2.61,3.58,3,3.59,2,2.06,1.22,5.65,2,3.21,1.63.49,3.66-.9,3.22-6.81,2.85-7.8-1.64-7.23-.44-6.65-.52-9.34-.47-5.37,0-4.26.87-5.6,5.32-1.4,4.37-1.22,2.76s-2.6,3.1-2.77,3.37-2.78,2.17-2.78,2.17l-4.78,1.73s-4.38,2.55-4.67,2.59l-6,1.74-4.45,1.25-2.27.41-.19,1.74-1.51.76-2,.91-3.31,3s-1.67,1.23-1.9,1.34-5.47,2.22-5.47,2.22-5,.77-5.25.86-3.67-.63-4.5-.16-2.72,1.6-2.72,1.6l-1.87,4.17-4.38,3.23-2.63.17-.59,1.49-1.47,2.8-2.84,1.73-.8,2.11-2.55.07-3.13-.21-2.15,3.94-4.51,7.56s-2,7.69-2.2,7.81-7.21,3.23-7.21,3.23-.57.64-3-.19-6.51-1.78-6.72-1.8-3.44-2.13-3.33-3.15l.58-5.28-1.65-1.74-4.29,3.69-.43,6.45,2.33,7.67,1.54,4-.77,1.25-5.24,3.94-6.95,3.77-3,3.61-5.66,3.26-1,5.61-3.16,8.13-3.47,5.83-6.28,3.26-8.2-2.63,3.11,10.27.49,2.12-5.6,5.81-6.28.3-10.13-6.42-7.48-4.45-4.27-4.86-9-6.21,14.61-4.89,19.46-2.09,6.85-5.46,9.5-9.15,4.57-8.23-10.33-3.68-17.46-3.9-9.35,3.07-20.89,5.18-13.63,4.48-4,4.88,1.36,18.85,4,17.8,2.69,15.18,13.26,11.27-2.63,12.43-4.06-1.58-.72-8.84-9.08-6.65-9.35-17.7.69-14.62-5.44-12.75-3.67-7.47-6.36-3.29-2.2-2.46,8.66-3.08,9.14-3.72,3.52-8.09-7.86-1-10,6.64-12.89,6.53-5.74,6.71,6.12,5.2,5.26,2.56L7373.91,6293l-.09,24.34,3.62,11.42-8.37,21.4L7352.25,6371l-1.13,10.23,6.54,15.23,14.26-2.4,16.1-8.76,9.82-14.17,8.88-1.56,11.68,8.73-9,14.8-11.09,17.92-1.69-9.59-8.56-.35-12.69,6.15,1.33,9,5,11.93-15,9.27-8.56,4.64-3.17,2.64,2.43,4.14,2.11,5.12-3.58,8.21,14.61,9.56-6.57,11-24.77,5.87-20.76,6-4,5.5-14.7,10.75-7.54,4.47-15.25,1-19.63,19.12-3.77,18.77-8.39,15.93-4.71,28.53V6614l15-.36,20.09,2.22-20,7.23-6.84,11.52L7236.45,6652l4.24,8.94,10.16,18.07,17.34,9.26,8.39.93,37.55,15.45.63,7.13-.57,6.44,5.32-4.07-.41-9.69-2.26-5.65,6.55-10.19-5.12-7.33-6.42-12.91,3.34-9.17,12.16-.7,14.51,10.64,4.54,10.44,5.43,3,5.34-.87,2.25,16.53.79,14.29,24.38,5.36,5.85-12.62-1.22-6.28s5.06-7.73,3.85-10.08-3.12-8.07-3.47-8.74-.71-10.87-1.29-11.37-.45-8.65-.45-8.65l5.51-2.66,5.91-1.71,5.12-15s13.13-4.48,13.41-5.15,5.1-17.71,5.1-17.71,8.13-13.53,8.52-16.24,1-8.92,1-8.92l5.92-16,9.87-16.06,3.75-7.91,6.52.62,9.2,6.53s11.72,7.58,11.92,7.51l17.59-6.56L7487,6550.52l.12-11,16.85-6.13,16.43-8.79.37,24.82,15.37,5.17,8.07,1.8,13.08.54,4,7.93,1.23,9.34,3.07,9.11-7.71,12.43-36.35,5.58-6.93-1.44-26.55.42s-7.86,1.56-8.09,3.93-2.09,10-2.09,10l-8.27,3.56-11.86,4-3.38,7.41-9.25,10.88-10.65,7.43-6,3.12-6.88,6.45-2.74,8.32,7.89,15.68,2.19,16.56,14.95-.26,12.7-3.51,13.81-2.72,3.73-9.29,1.86-.67,5,.84,2.83.86,14.42-3.26,15.81-5.84,6.55,1,7.4,5.89-.49,12.16,3.34,12-2.49,13.4-1.85,9.52,1.47,10.69-2.86,9.21-8,8.65-25,3.73-12.94,2-1.9,7.14-11.51,7.27s-13.74,3.08-14.41,3.46-24.88,2.66-24.88,2.66l-20.54-4.84-12.68-5.23-13.1,3.49-17.38,9.66,1.91,14.46-1.29,11.65-11.34,7.68-20,4.16-18.89-7.38-21.62-7.68-5.67,7.22-7.63,1.91-3.32-1-9.66-.43s-6.54-6-6.87-6.9-5.19-8.68-5.08-9.7,3.91-6.58,3.91-6.58,2.71-9.18,2.08-9.25-.71-12.8-.71-12.8l-2.91-2.44-9.42-2.95-7.09,4.73-9.5,22.69,1.7,7.61,1.56,5-5.53,9.77s3.89,12.72,4.5,13,5.26,8,5.26,8l-14.54,11.43-18.44,28.8,4.29,84,12.7-10.56-9.33,41.5-20.15,25,12.36,23.17,13,8.77-4.79,11,4.53,18.79-11.82,7.19,8.07,45.15,12.77-26.61,7.75,37.15,1.67,15.5-9.8,17.74,11.42,29.46,17.58-5.2,15.3,5.8,26.62,6,12.75-9.95,12.17,8.11,18.64,15.44-2,37.23,25.28,25.07,23.51,15.32,15.68,15.22,11.59,4.72,17.64,26.11,19.13,17.91,19,23.19-3.13,29.21,2.32,20.93,8.24,22.93,5.68,8.89,9.17,6.37,53.54,40.47,11.75,23.59,16.18,19.41,16.34,14.31,32,12.65,8.07,12.94,15.9,18.32,17.55,15.6,23,17.18,33-16.08,7.47,7.69,16.61-8,3.94-6.67,16.79-13.27,14.25-37.56,6.27-25.25s3.79-22.79,1.28-24.2-10.9-1.2-10.9-1.2l.75-6.81,8.81-1.42-7.82-7.5.72-10.51,10.12-11.82,4.56-17.21-9.71-12-8-16.31-11-24.5,11.74-20,18.52-21.35,8.05-16.67-3.19-27.4-21.61-37.17-3.83-14.08-9.18-4.5-17-14.34s4.54-14,3-16.55-13.83-24-13.83-24l.2-24.42,11.38-31.05,16.39-36.71,20.78-38.47,13.5-28.81,4-46.9-3.07-8,9.52-14.26-4.34-12.17-3.2-9.08-1.3-22.58-7.12,8.28-22.77,13.44-19.15,8.6-23.62,9.25-22.12-8-6.68-12.64-6.44-1.57-21.6-12.93-36.84-18.52-12.86-21.51-15-12-11-21.32-6-12.59s-6.51-18.25-7.87-16.62-10-.77-10-.77l-13.32-12-8.86-9.67-8-8.82-6.91-10.79L7532,6804l8.58-11.41,7.85.87,3.06,2.91,8.43,6.59,9.11,13.12,7.59,4.32,11.89,9.17,5.28,15.64,4.9,2.07,9.68,4.24,4.76,9,8.58,17.06,13.57,5.16s5.72-7.79,8.36,2.64,7.34,8.65,7.34,8.65l12.34,11.1,11,9,5.13.57,5.05,15.08,3.75,13.63,10.72,8.2,1.89,9.58,14.7,2.43,8.82-7.36,25.87-15.55,11.2-12.75,21.14-18.35,10.41-12,9-20.84s6-4.9,7.83-4.71,20-11.12,20-11.12l5.73-14.82,12.68-21.48s3.22-15.81,3.72-18l4.41-19.71-3.13-15.18-10.68-5.6-14.11-8.36-17.67-1.6L7791,6741.58l-4.1,16.42-7.64,8.42-12.69,7.1-12.64-.83-30.29-18.11-17.08-10.85L7690,6726.43l.34-5.32,9-16.34,9.84.56,9.35,9.7,15.17,9.66,17.62,11.16,10.16,1.12,22.33-6.46,17.51-6.35,12.13,7,14,5.11,29.78-8.69,8.44-1.72,28.82-7,13.16-5.46,12.29-3.84,9.89,1.09,12.5,10.44,6.54-4.43,4.23-.5-.06,6.66.91,6.63,14.32-2,7.58-2.1,1.32,8.49-8,6.12,2.21,3,11.47,6.21,11.17,1.23,9.32-6.69,3.51-5.5,6.53.72,3.71,5.66,1.29,11.29,7.47,17.29,12.93,11.15,11.34,26.19,22.29,15.36,8.84,17.58,15.58,18.43,20.82,22.55,9.45,12,10.3-1.45,16.21-22.18s2.75-17.78,1.9-19.57-4.53-24.6-4.53-24.6l-5-18.49s-3.67-6.55-5.56-9.51-5.27-20.17-5.27-20.17l21.23-26.84,5.46-16.54,8.73-18.37,11.33-16.86,1.35-18.62,14.25-11.77-2.21-13.81,9.11,3.09,2,5.64,9.34-5Z" transform="translate(-4499.86 -2851.68)"/><path class="f" d="M7724.58,7655.88l-7.45-7.67-31.91,15.56-28.71-21.5L7638,7625.72l-16.87-19.62-6.27-10.05L7584.41,7584l-18.81-16.64-17.49-21.41-10.68-21.42-51.61-39-10.53-7.3-7.8-12.7-8.65-24.07-2.46-24.36,2.67-24.92-15.86-19.32-20.13-19.21-15.89-23.52-10.54-4.29-16.4-15.91-24.3-16.1-28.55-28.32,1.94-36.66-14.24-11.8-5.53-3.68-10.72,8.37-32.78-7.45-12.05-4.57-23.36,6.91-16.6-42.81,10.55-19.11-1.26-11.76-1.43-6.85-13.42,28-14.93-83.56,11.42-7-3.57-14.82,2.76-6.35-8-5.41-16.78-31.44L7202.3,6987l2.16-9.61-5.24,4.36-5.52-107.87,21.16-33,8.44-6.63c-1.79-2.74-3.17-7.26-5.77-15.75l-1.3-4.24,5.52-9.75-.36-1.18-2.51-11.21,12-28.59,13.78-9.18,16.09,5,8.15,6.83,0,4.77c0,3.39.13,7.6.27,9.65,1.26,3.7.14,7.9-2.06,15.37l-.46,1.56-.92,1.34-.78,1.14.83,1.43c.46.8.87,1.54,1.21,2.18.55.57,1.49,1.5,2.53,2.49l9,.87,1.45-.36,8.07-10.26,28.6,10.16,16.34,6.38,15-3.11,5.71-3.87.63-5.67-2.67-20.18,25.87-14,16.47-4.4,15.13,6.25,18.09,4.26c9.14-.87,18.92-1.86,21.55-2.23,1.84-.54,5.34-1.39,13-3.14l6.59-4.16,2.59-9.72,41.06-6.3,3.95-4.27,1.49-4.8-1.38-10.11,4.22-22.16-3.13-11.28.35-8.55-1.15-.91-1.2-.18-14,5.15-17.74,4-2.53-.77-3,7.4-18.92,3.72-13.59,3.75-25.45.44-3.16-23.95-9-17.93,4.89-14.87,4.25-4c-1.27.48-2.7,1-4.34,1.56l-5.23,15.25-8.83,2.56a55.16,55.16,0,0,1,.95,8.11c.08,1,.14,1.93.2,2.63.16.4.33.86.51,1.34.62,1.69,1.47,4.12,2.11,5.36,1.5,2.92,2.77,7.73-2.14,16.72l1.1,5.67-10.72,23.15-40.11-8.8-1.2-21.69-.94-6.88-9.86-5.37-4.84-11.13-9.27-6.79-.55,0,3.46,7,8.65,12.38-7.42,11.53.94,2.35.72,16.81-28.19,21.58,2.56-28.85L7274,6699.3l-8.92-1-21.75-11.61-12-21.33-6.83-14.38,15.56-22,2.82-4.73-12.74.31.14-27.53,5-30.17,8.47-16.09,4.1-20.44,24.64-24,16.59-1.09,5-3,13-9.52,5.16-7,24.13-7,19.09-4.53-12.4-8.12,5.31-12.18-.17-.42-6.48-11.07,11.57-9.37,8.56-4.64,7-4.33-2.11-5-2-13.28-13.39,2.25-10.81-25.16,1.76-15.93,17.72-22,6.47-16.52-3-9.48.11-29.54,6.85-8.61-10.75-9.12,13.81-16.15,14.18-7.18,12.67-8.44,25.3,3.26-2,4.55,2.32-.73,20.51-5.09,11.68-3.84,21.44,4.87,21.78,7.76-.09.17,1-.55-2.2-7.23.85-12.64,15-12.92,11.7,12.33-.37,3.36.44.13.31-.14c.41-1.54.76-2.92.76-2.92l.37-1.45,10.39-18.2,6.24.42,1.13-.69,2.71-6.87,6-.38,2-4.49,2.77-1.66s2.08-1.24,3-1.75c3.23-1.82,6.56-1.58,9.17-1.25l2.88-.46,3.22-1.3.37-.27,3.66-3.35.42-3.85,9.36-1.69,9-2.57c1.21-.66,3.24-1.86,3.24-1.86l1.68-.79,3.38-1.23.41-.31,1.19-1.47.44-1,2-6.35,9.66-9.16,9.14-1.68,5.38,0,12.54.68-4.11-4.26-2.59-9.88,1.52-11.33-2.52-1.51,1.58-14.33,5.28-2.87,3-6.93.18-4.76,35.07,3.43,3.41-4.46,11,.21,1.83-.93,5.21-3.2,5.16-2.25.85-4.9-.39-4,3.26-8.81,7-3.84,8.14-5.31,2.77-3.4,7.69-.76,1.91-5.13,1.75-8.12,1.49-7.84,4.56-.3.78-1.3,5.5-2.62,5.86-5.86.55-5,11-.47,1.11-1.37,2-2.56,1.89-.58,2-3.78,5.8-.07.9-.23,1.26-2.54,7.66-3.11,2.54-.1,1.08-.21.44-1.52,2.69-2.82.39-3.56,8.56-8.29,9.47-6,8.4,1.5,7.24-2,7,.77,9.73-.19,5.3-2.93,15.67-.68c1.73-.28,6.81-1.1,8.56-1.45,3.75-.75,8.39.07,11.63.89l3.87,1,9.38,14.21-1.45,3.36.11,0a64.84,64.84,0,0,0,9.39-3.26c5-3.53,9.11-2.93,11.75-1.75l7,.09c.77-.09,1.63-.22,2.3-.35,2.69-1.92,6.69-3.11,12.83-3.93l2.51,0L7966,5996c4.66-1.18,16.73-4.31,17.44-4.4.95-.13,5-1.29,7-1.8,4.58-2.29,9.73-4.91,11.24-5.76,2.1-1.55,4.65-2.43,17.91-3.58l2.07,0,14.57,1.68,15,6.29,12.13,6.11,12.13-3.63,3.58-8.63,23.92-6,3.87-.81-8.88-15.46,31-2.5c.54,0,18.92-.54,20.9-.6s16.6-2.75,18.6-3.17c3-.65,26-1.34,28-1.12,1,.11,11.62,1.09,15.16,1.41,3.69-.49,15.15-2,16.72-2.27.09,0,.82-.18,17.89-2.64l1.72-.1c12.59.31,26.94.52,29.9.37,1.77-.26,6.12-.3,26.69,1.42l7.18-5.52,28.2-2.78,22.21.5-6.21-9.8,58.08-6.58,37.09,1.85,29.48.18,62.11,4.59,35.54,7.83,39.22,14.24-20.84,14-12.74,2.22-22.12-3.34-14.47-1.08-9.65.86.23.24,22.92.46,55,23.62-49.08,7.05-3,27.63-19.19,4.67-5-.56-6.92,3.68-8.93,3.91.94,2.86,2.45,3.18,11.66,1.36,21.42,5,11.36,12.27,8.53,5.2,22.25,9.88-5.44,9.9,1.91,3.47,4.53,6.27,39.6,51.92-49.35-19.34-20.41-6.65L8556.51,6113l-20.86-6.53-35.45-19.19-1-.93c-8-7.65-13.4-12.8-11-19.82.25-1.12.79-4.08,1.38-7.35l-7.19-2.43-3.53-12.4-4.68-8.8-.48-3.76-12.23,11.76-9.26-4.89-9.19-1.12-9.42-2.42-.24.26,1.6,3.67,22.63,20.47-19.11,11-13.32,4.12-10.13-3.22-13.09,4.68-5.06-.56-10.24,4.81-20.46,2.28-11.68,4.33-2.55,2.31-.12,2.93,1.48,10.92c4,7.13,4.4,8.69,4.64,9.56s.61,2.2,1.38,13.74c3.85,3,7.73,6,10.3,7.9l2.07-.53,6-1.55,6.63,7.17,2.6.29,17.23-9.23,28.14,3.11,13.22,6.32,11.71,12.3,14.49,10,28.81,23.41,1.92,12,6,7.65,4.51,1.19-1.23,16.63c2,5.76,7.18,21.45,8,35.29.54,9.57-1.83,16.48-7.06,20.56a15.8,15.8,0,0,1-12.16,3.13l-21,.3-4.61,10.14-1.08,1.2c-.17.19-17.37,19.32-24,38.24-3.87,11.08-9.77,17.78-17.53,19.91a20.64,20.64,0,0,1-18-4l-4.43-3.72c-1,4.81-3.79,6.94-6.94,9.36-.95.73-2.19,1.69-3.84,3a2.52,2.52,0,0,0-.46,1.55,6.6,6.6,0,0,0,.28,2.23c9.35-4.13,17.69-1.17,23.39,3,8-7.78,20.15-12.39,25-14l4-1.31,3.76,1.8c3.82,1.83,15.44,7.4,14.79,18.34-.34,5.75-4.06,9.95-8.39,12.55-2.51,6.18-2.21,9.23-1.81,9.94a2.61,2.61,0,0,0,.7.48c10.12.79,17.2,4.23,20.88,10.2a17.3,17.3,0,0,1,1,1.84,29,29,0,0,1,17.13,13c30.05,8.82,38.71,36.43,39.08,37.66,20.16,74.42-4.86,102.48-13.09,111.7l-.26.29a12.47,12.47,0,0,1-6,8.23c-5.41,10.89-20.41,18.67-30.23,22.77-1.6,3-3.34,5-6,6.25a35.06,35.06,0,0,0-4.7,2.58c12.54,9.58,13.1,18.77,12.45,23.13l-.4,11.43-1.54,2.39c-2.53,3.92-10.24,15.91-22,14.7a16.64,16.64,0,0,1-11.23-6.35,17.06,17.06,0,0,1-10.56-12.7,14.82,14.82,0,0,1-1.56-9.66l-1.2-7.45,3.64,1.21a18.32,18.32,0,0,1,1.42-2l.45-.78a2.47,2.47,0,0,0-.24-.45,41.41,41.41,0,0,0-5.85-.21H8439c-1.92,3.38-4.2,11.48-5.5,19.54a34.8,34.8,0,0,1,3.43,8.45c13.22,4.64,24.35,14.27,29.47,19.21a16.65,16.65,0,0,1,7.17,2.95c8.62,1.32,14.43,7.38,17.52,13.58a23.82,23.82,0,0,1,8.41,8.33,15.06,15.06,0,0,1,4.15,9.81,17.24,17.24,0,0,0,4.28,3.69l2.31,1.34,1.37,2.3c15.62,26.19.56,45.08-7.53,51-1.38,1.37-8.42,8.89-12.28,22.88-4.74,17.17-14.36,19.28-19.68,19-9.73-.52-16.39-9.52-17.72-17.71.2-.07-.85-.71-4.68-.73-11.27-.08-16-5.46-17.22-7.1l-1-1.74c-2.6-5.67-15.69-10.91-28.45-14.09l1.85,17.56a34.14,34.14,0,0,0,1.76,10.83c5.77,1.14,10,3.52,12.55,7.09a13.07,13.07,0,0,1,2.51,7.43l.19.24,3.24,4.16A23.54,23.54,0,0,1,8431,6814c28.08,2.9,40.83,18.61,45.64,26.78l4,1.31.93,3.81,1.75,1.45,5.23,5.4.19,10,2,1.91,4.74,5.15,4.18,8,1.85,13.65-9.21,8.63-14.25,2.74-5.4-1.44-9.13,1.21-12.32-9-4.89-4.7-2.66.24-5.65-8.81-2.82-1.1-5.94-8.67-2.93-7.19-.27-1.3-1.61-1.22-.56-4.31a5.9,5.9,0,0,0-.14-.65,13.87,13.87,0,0,1-2-3.17c-17.24-7.4-35.28-22.85-36.12-23.58l-3-2.57-1.12-8.53c-8.94-14-11.17-30-12.52-39.71-.21-1.51-.46-3.28-.66-4.45a22.1,22.1,0,0,1-3.77-8.22,18,18,0,0,1-3.11-7.8l-2.69-2.54-5.05-1.86-10-5.57-3.4-11.12-2.27-2.33-6.21-3.19-6.63,6.11-5.22,3.42-13.19,1.4-10.7-1.18-12.54-12.15-2.12-11.59-2.62-4.82-8.17-7.46-2.42-6.48-9-4.07c-.08-.06-8.2-5.7-16.14-10.09-6.34-3.5-12.76-11.06-17.25-17.16l-4.82,2.89-17,9.21-10.85,9-1.22,17-12.44,18.49-8.12,17.09-5.83,17.67L8146.25,6783a121.11,121.11,0,0,0,3.16,12.43c2,3.27,5.59,9.59,5.59,9.59l1,2.36,5.11,19,.09.52c1.45,9,3.33,19.77,4,22.54,1,2.42,1.57,5.89-1.37,24.84l-.39,2.48-20.26,27.73-20.48,2.89-12.88-16.31-20.55-22.26L8072,6848l-7.65-15.22-22.55-15.53-11.58-26.74-12.94-11.16-9-20.87-.6-5.28-10.87,7.82-17.11-1.89-15.29-8.27-8.3-11.37-11,1.54-1.18-8.65-2.26,1.53-16.08-13.42L7921,6720l-9.79,3.06-14.24,5.78-28.82,7-8.39,1.72-32.62,9.52-18.75-7-8-4.58-.21.08,14.37,10.64,17.11,1.56,16.11,9.54,14.54,7.61,4.57,22.13-4.89,21.87c-.49,2.19-3.68,17.82-3.68,17.83l-.35,1.69-13.13,22.23-6.67,17.25-2.93,1.82c-14.81,9.21-20.26,11.72-23.28,12.54-.45.29-1,.68-1.58,1.09l-8.59,19.84-12.48,14.26-20.61,17.9-11.8,13.43-26.57,16-11.83,9.88-6-1,.08.15,14.73,5.36,20-7.83,18.16-8.17,20.81-12.29,22.65-26.37,2.67,46.63,8.79,24.71-9.43,14.12,2,5.23-4.4,51.09-14.28,30.47-20.86,38.65-16.08,36-10.64,29-.16,19.85c3.25,5.67,11.18,19.49,12.36,21.48,1.33,2.24,3.26,5.48-.12,18.27l10.88,9.17,12.22,6,4.7,17.28,22,37.85,3.79,32.52-10,20.6-18.8,21.68-8.56,14.58,8.84,19.65,7.36,15,12.27,15.18L7797,7494l-9.43,11-.16,2.29,19.29,18.49-10,1.61c1,5,.45,13-1.84,26.83l-.17.79L7788,7581.5l-15.26,40.22-17.51,13.85-4.55,7.71Zm-3.06-32.76,7.5,7.73,7.1-3.43,3.33-5.64,16.06-12.69,13-34.33,6-24.24c.74-4.53,1.34-9.33,1.67-13h-.94l-11.78.28,2.89-26.33h0l1-14.6,10.8-12.63,2.62-9.88-7.65-9.88-8-16.31-13.36-29.68,15.54-26.12L7785,7372l6.15-12.74-2.59-22.29-21.21-36.48-3-10.89-7.11-3.82L7735,7267l2.13-6.59a87.68,87.68,0,0,0,2.69-10.35c-3.6-6.22-12.61-21.94-12.61-21.94l-1.39-2.42.24-29,12.26-33.38,16.73-37.41,20.78-38.46,12.45-26.62,3.68-42.7-4.14-10.76,9.6-14.38-6.3-17.8-.18-3.2-16.57,9.71-19.15,8.6-27.71,10.86L7698,6990.42l-6.37-12-3.46-.84L7665.57,6964l-39.18-19.69L7613,6921.81l-15.21-12.18-12-23.26-6.55-13.86c-1.17-3.29-2.53-6.76-3.64-9.41a49.48,49.48,0,0,1-7.31-1.52l-2.35-.65L7550,6846.6l-17.92-19.89-7.68-12-3.85-12.69,15.25-20.28,17.14,1.89,5.22,5,9.26,7.24,8.67,12.49,6.75,4,14.36,11.08,4.81,14.21,13.73,6,13.31,25.85,4.43,1.69a13.32,13.32,0,0,1,8.45-1.18c3.95.77,9.12,3.59,11.52,12.59l16.69,15,8.25,6.77,8.64,1,7.15,21.33,3,10.83,11.06,8.46,1.26,6.39,3,.49,6.49-5.25,24.5-14.72,11.13-12.52,20.58-17.87,8.89-10.27,9.4-21.7,2-1.59c5.9-4.8,9.6-6.43,12.26-6.89,2.46-1.2,8.27-4.59,13.69-7.9l5.22-13.1,11.8-20c.85-4.17,3-14.73,3.41-16.51l3.92-17.55-1.7-8.23-6.36-3.33-12.57-7.43-18.23-1.66-9.68-7.17-1,4-10.52,11.59-16.83,9.41-18.16-1.2-32.42-19.39-19.24-12.58-19.63-20.56.79-12.13,13.25-24,20.36,1.17,11.31,11.72,29.72,18.87,5.76.64,20.37-5.89,21.36-7.76,15.51,8.9,10,3.65,26.93-7.86,8.86-1.8,27.66-6.74,13.3-5.48L7919,6699l15.12,1.67,8.93,7.45,2.19-1.48,18.36-2.17-.13,13.16,2.76-.39,18.08-5,4.06,26-1.27,1,4.16.46,4.5-3.23,5.89-9.23,17.73,2L8027,6741l1.39,12.2,5.92,13.71,12.93,11.14,11.1,25.65,22,15.17,9.48,18.85,14.79,17.5,21,22.81,5.91,7.31,12.15-16.62c.78-5.33,1.48-11.15,1.57-13.5-.72-2.73-1.94-8.81-4.47-24.46l-4.5-16.73c-1.08-1.91-3.31-5.83-4.63-7.88-.81-1.27-2.95-4.62-6.7-23.75l-.91-4.66,23-29.12,5.37-16,9.49-19.69,9.8-14.58,1.47-20.29,13.1-10.82-4-24.87,28.68,9.72,21.24-12.72,5.34,8.65c4.46,7.21,11.61,16.28,15.39,18.37,7.34,4.06,14.55,8.88,17,10.58l14.38,6.1,3.78,10.14,7.06,6.44,5.84,10.77,1.52,8.32,2.72,2.64,2.46.27,4.81-.62.45-.3,4.46-4.27,2.76-6.33,17.1-15.59,8.52,20.86,4.52,2.31,8.1,8.32,2.43,8,1.86,1,6.68,2.19,11.47,10.85-1.46-13.37,13,1.75c7.49,1,43.71,6.76,55.77,25.22a11.12,11.12,0,0,0,1.44.09c13.8.09,20.08,6,22.91,11.74,6.14-19.63,16.83-29.28,18.08-30.37l1.07-.8c2.45-1.74,10-8.5,3.08-21.8-3.9-2.76-10.36-8.39-11.7-16.15l-1.16-2.35a7.33,7.33,0,0,0-.55-.83l-6.61.13-1.84-8.23c-1.08-4.16-3.3-3.82-4-3.7l-27.75,4.37,10.93-12.7c-5.4-5.24-17-14.71-27.39-16.1l-23.23-3.11,14.5-12.11a29.83,29.83,0,0,0-2-3.61l-2.06-3.16.46-3.74c2.37-19.24,8.64-42,24.78-41.12,1.41.07,2.81.07,4.18.07,3.7,0,9.3,0,14.51,2.28,2.55-7,9.6-11.9,15.24-14.85.23-.53.4-.95.42-1l1.71-4.09,4.16-1.58c10.16-3.85,21-10.43,22.88-13.84l-.89-13.79,8.61,2.38c.58-.72,1.19-1.39,1.77-2.05,7.06-7.92,25.82-28.95,8.66-92.31-.16-.47-6.58-19.87-28.43-24.39l-5.76-1.19-1.91-5.56a8.54,8.54,0,0,0-8.07-5.51c-7,0-16.59.07-16.76-10.2,0-.36,0-.72,0-1.05a22.23,22.23,0,0,1-16-10.79c-3.92-7-3.88-15.79.09-26.35-3.27,1.93-5.71,3.83-6.29,5.13l-.65,7.63-7.38,1a14.81,14.81,0,0,1-16.29-7.47c-1.14-1.19-2.76-2.18-4.51-1.2-8.42,4.81-18.36,2.3-24.09-6.14-6.34-9.32-6.74-24.55,3.68-32.91,1.58-1.26,2.82-2.22,3.79-3,.13-.82.31-1.75.56-2.86,1.15-5,3.07-13.33,10.68-15.74a12.38,12.38,0,0,1,10.76,1.71l.57-.24,2.21,0c1.66,0,10,.44,14.68,7.06.28-.66.57-1.4.87-2.25,7-20.07,22.71-39,27.07-44l8.72-19.18,33-.47c0-.54,0-1.18,0-1.92-.65-11.43-5.61-26.48-7.46-31.31l-.83-2.15.3-4-5.15-1.36,1.52-8.67-4.6-5.82-1.52-9.5L8459,6178.46l-16-11.25-9.84-10.33-6.64-3.18-18.2-2-17.57,9.19-16.38-1.81-3.58-3.88a12.72,12.72,0,0,1-4.58.33c-3.34-.37-3.77-.42-23.24-15.71l-3.64-2.86-.28-4.62c-.32-5.27-.78-11.59-1-14.08-.69-1.39-2.2-4.2-3.63-6.73l-1-1.72-2.22-17.54.51-12.47,11.9-10.79,17.79-6.6,19.58-2.18,12.4-5.83,6.11.68,15.15-5.42,2.84.9-8.4-19.21,17.73-19.23,20.79,5.33v0l-13.8-20.29,40.8,7.35,17.83,11.19,1.74,13.57,4.23,8.46.86,3,3.63,1.23-4.78-14.54,25.73-11.27,11.47-6.15,7.8.86,1.63-.4,2.36-21.35-17.91-.36-14.91-14.88,4.4-14.67,2.91-6.83-41.8-3-29.25-.16-36.69-1.82-22.37,2.59,2.7,10.6-18.81,4-13.78-.89-21.47-.48-20.46,2.08-8.88,6.83-4-.34c-10.65-.92-23.47-1.86-26.32-1.84-2.11.24-8.07.38-32.14-.2-3.26.47-14.75,2.13-16.24,2.39.05,0-.92.21-18.91,2.58l-2.3,0s-15.55-1.43-16.68-1.56c-1.53,0-19.39.59-22,.89-.2-.13-18.23,3.4-21.64,3.51l-19.15.54,5.58,12.16-29.42,6.17-13.47,3.36-3.35,8.07-29.36,8.8-19.14-9.64-11.28-4.72-10.62-1.22c-3.45.32-7,.73-8.73,1-1.92,1.07-5.55,3-12.94,6.64l-2,.74s-8,2.16-8.88,2.28h0c-1.48.35-18.51,4.69-18.51,4.69l-1.81.47-12-1.32c-1,.16-2,.36-2.72.53h0c-2.69,2-6.67,3.15-12.52,3.71l-1.11,0-10.74-.14a63,63,0,0,1-7.2,2.77c-.85,1.24-2.63,3.83-3.11,4.59-1.14,1.77-2.58,3.41-9.09,6.89l-6.36,8.57-24.06-1.91-.3-9.21a19.43,19.43,0,0,1,1-7l5.34-14,2.85-4.86c-2.93.5-6.28,1-6.28,1l-1.18.12-11.42.5-5.53,3.05-16.84.24-3.67-.4-7.92,2.21-5.15-.92-2.58,2-.5,4.55-4.11,3.76-1.49,5.12-3.61,2.07c-3.24,1.85-5.77,3-8.51,3.07-.49.07-1.14.19-1.69.3l-.29.58-9.3,4.7-1.2,2.23-3.76.78-3.79,3.35-4.09,2.47-2.36.28-2.51,3.39-1.8,0-.4.64-8.3,5.56-1.45,3.23-1.12.37-1.23,4.72-2.62,7.76-1,3.86-9.37,6-6.48,1.46-3.9,2.63,2.38,7.08.45,13.69-13.23,1.94-13.37,6-4.13,2.64-7.38,3.76,3.38,6.33,3,1.53,5-1.11,15.28,2.93-3.43,14.56.17,2.29,2,6.76,1.7,7.89-.65,5.93c-.17,1.57-.33,2-2.84,8.33l-.55,1.41-6.65,8.46-10.59,5.49-6.62,2.62-12.26-2.16-10-9,5-12.15,3.74-4,2.22-3.17,1.71-3.11.24-1.46-.88-1.71-3.4-3.12-8.8-9.87c-3.85-4.79-5.91-7.36-6.9-9.48-.65-1.17-1.87-3.21-1.87-3.21l-4.54-8.65-1.45-.14-.87.52-3,17.66.47,1,2.42,2,4.11,2.35,5.94,2.17,8.05,4.07,1.5,11.14-2.81,10.08-14.38,6-10.21-2.14-26.52-1.26-1.55,1.47-2.8,7-.93,1.12s-1.88,2.24-2.41,2.91c-1.05,1.41-2.33,2.4-5,4.33l-1.18.86-5.28,1.91c-3.44,2-4.94,2.84-6.58,3.23L7602,6202l-7.32,3.63-3,2.66s-2.92,2-3.3,2.21c-.15.08-6.33,2.61-6.33,2.61l-1.13.47-1.14.16s-3.43.52-4.53.72a10.56,10.56,0,0,1-2.2.26l-.89,2-8.49,6.25-1.08,2.07-2.26,1.37-2,5.26-6.91.19-3,5c-2.18,8.44-3,10.87-7.12,13-.2.1-5.32,2.4-7.1,3.2a12.45,12.45,0,0,1-8.5,1.13l.17.45-4.49,7.25-8.07,5.93-5.19,2.82-2.89,3.5-3.15,1.82-.7,2.78-3.9,9.67-5,8.36-7.93,4.12,1,4.25-12.31,12.77-13.63.64-21.51-13.29-4.5-5.13-8.79-6.06,1.51,6.66,2.13,12,15.12,12.85-6.41,30.31-21.39-8.32-.86-10.57-7.2-5.28L7396,6309.44l.71-15.07-3.72-8.71-8.75,11-.07,19.14,4.23,13.36-10.28,26.27-15.93,19.74-.5,4.53,2.27,5.29,4.57-.77,12.43-6.77,10.88-15.69,17.51-3.08,22.73,17-39.15,63.79-1-5.47-23.55,14.28,2.39,5.8-1.85,4.23,15.62,10.22-13.9,23.21-29,6.87-16.9,4.94-2.91,4L7305,6519.75l-9.66,5.73-13.92.92-14.62,14.24-3.43,17.1-8.3,15.76-4.3,26v3.87l5.85,0,64.19,7.09-58.25,21-5.4,9-8.84,12.53,1.51,3.17,8.51,15.14,12.94,6.91,7.87.86,30.11,12.39,1.71-2.65-1.95-3-8.39-16.87,7.18-19.69,22.62-1.32,19.75,14.48,4,9.23,11.74-1.9,3.76,27.84.36,6.47,8.64,1.9,1-2.08-1.38-7.12,2.29-3.5a35.13,35.13,0,0,0,1.79-3.15c-.52-1.3-1.05-2.74-1.61-4.27l-.6-1.6c-.84-1.59-1-3.19-1.32-7.94-.11-1.5-.21-3.12-.34-4.26-1-3-1-6.78-1-12.15l.1-6.35,13.62-6.27,5-14.66,4.78-1.64c2.72-.92,5.86-2,8.22-2.92,1.48-5.13,3.69-13,3.69-13l.37-1.33.71-1.18c3.15-5.23,6.37-11.09,7.25-13.16.37-2.81.82-7.65.82-7.68l.6-2.6,6.81-17.82,9.58-15.58,6.6-13.94,16.47,1.57,11.44,8.11h0l3,1.92.22-21.18,22.87-8.32,30.7-16.43.51,34.45,7.94,2.67,6.64,1.48,18.2.75,7.53,14.89,1.33,10.09,4.31,12.76-12.78,20.58-42.88,6.58-7.63-1.58-24.34.38c-.5,2.35-1.07,4.73-1.4,6.07l-1.22,5-13.75,5.87-7.64,2.59-2.13,4.67L7451,6648.52l-11.78,8.12-4.73,2.47-3.93,3.68-.58,1.76,6.76,13.43,1.21,9.17,4.45-.08,11.81-3.27,8.69-1.72,3.37-8.39,8.76-3.13,9.12,1.65,11.1-2.51,17.66-6.52,11.89,1.78,13.66,10.86-.64,15.78,3.54,12.76-4.47,23.66,1.54,11.27-4.23,13.62-12,13-34.81,5.24-1.22,4.57-16.44,10.38-1.74.39c-5,1.12-11,2.51-12.89,3-2,.83-6.26,1.29-27.7,3.3l-1.68.16-23.76-5.73-9.46-3.9-8.5,2.26-10.13,5.63,1,10-1.81,16.38-17,11.49-24.95,5.2-21.75-8.5-14.34-5.08-3.27,4.16-13.81,3.47-4.81-1.45-12.12-.54-2.77-2.55c-7.26-6.68-8.55-8.43-9.32-10.31-.24-.43-.6-1.06-1-1.77-3.65-6.32-5.31-9.2-4.87-13.23.22-2,.69-3.84,4.7-9.87.46-1.65.89-3.28,1.15-4.37a56,56,0,0,1-.55-7.2l-.48-.15-.4.27-7,16.78.89,4,2.76,8.9-5.53,9.76c.8,2.49,1.58,4.83,2.06,6.16,1.3,1.71,2.91,4.27,5.36,8.34l4.71,7.8-20.33,16-15.71,24.54,3.07,60.13,20.16-16.75-16.5,73.38L7204,7017.82l8,14.9,18,12.13-6.83,15.74,4.08,16.9,2.52-5.23,14.12,68,2,18.74-9,16.37,6.25,16.12,11.8-3.5,17.87,6.78,21.15,4.73,14.77-11.53,19.22,12.88,22.63,18.75-2,37.79,21.25,21.07,24.17,16,14.24,13.82,12.64,5.15,18.74,27.74,19.21,18.11,21.77,26.53-3.47,32.39,2.06,18.6,7.44,20.69,3.95,6.18,7.47,5.19,55.8,42.17,12.3,24.68,14.9,17.86,14.39,12.6,33.48,13.24,9.43,15.13,14.94,17.2,16.72,14.87,17.6,13.15Zm747.38-742,5.1-.68,4.32,1.15-4.64-4.64-7.83-4.64,2.06-10.68-4.45-2.88-.17-.68-1.87-.62-1.72-4.68c-.21-.52-5.83-13.8-26.32-17.63l.49.15,9,2.77-1.48,7a19.64,19.64,0,0,1,1.88,4.16l1.37,1,1.47,7.07,2.17,4.87,3.93,1.53,2.31,3.75,8.72-.76.07,9.93,1.63,1.56ZM8424.74,6857h0Zm-1.16-1.54Zm15.47-13.3,0,0ZM8402,6816c2.84,2.28,6.72,5.23,11,8.17a3.2,3.2,0,0,0-1.2-1.64,16.73,16.73,0,0,1-7-5.91,12,12,0,0,1-3.47-5.83Zm20.15-1.13v0ZM7216.34,7090.76l1.21,6.74,5.06-10.56ZM8399.11,6807.3c.25.38.5.75.75,1.11l1.4,2a17.3,17.3,0,0,1-.42-2.65A16.43,16.43,0,0,1,8399.11,6807.3Zm2.09-6.29c0,.16-.05.31-.07.46C8401.15,6801.31,8401.17,6801.16,8401.2,6801ZM7641,6928.56l37.69,19.26-4.19-15.25-2.79-8.29-1.64-.18-13.34-11L7646.6,6904a14.14,14.14,0,0,1-3-1.14,18.12,18.12,0,0,1-7.86-8.72l-4.2-1.75-17.31-6.58-13.36-26.28-5.47-2.39c.91,2.28,1.89,4.9,3,7.91l5.78,12.11,9.87,19.08,14.69,11.76ZM8149.15,6795l0,.06Zm354.33-94.66ZM7807,6862.25h0ZM8483,6701.56h0Zm-18.32-70,4.3.19.71,1.8,0,0,.25-7.11a9.46,9.46,0,0,0-1.46-1.92l-3.94,6.78Zm-887.79,209.71,4.83.74-2.06-6.11-8.85-6.83-9-5.13-9.55-13.76-7.58-5.92-1.36,1.81,5.65,8.83,15.89,17.44,11,9.93.15,0ZM8474.74,6603h0Zm-717.68,159.54,7.11.46,8.56-4.78,4.77-5.25,2.67-10.69-17.73,5.14-14.56-1.6-36.72-23.65-6.11-6.34-4,7.21,12.06,12.63,16,10.18Zm-489.83,41.54c.42.82.71,1.42.8,1.67A10.17,10.17,0,0,0,7267.23,6804.09Zm165.24-182c-4.4,15.57-4.83,16.83-5.11,17.51l1.73-.9,9-6.3,7.46-8.76,4.64-10.17,18.79-6.65c.37-1.69.64-3,.7-3.58.63-6.61,6.14-11,16.34-13l1.85-.19,28.8-.2,5.11,1.06,29.82-4.58,2.65-4.26-1.84-5.45-1.14-8.6-.49-1-8.85-.53-9.11-2.09-22.29-7.5-.23-15.19-2.85,1.4-9.82,3.58L7515.7,6565l-32.49,12.13c-5.25,1.77-5.24,1.76-21.13-8.51l-4.65-3.29-.45.8-9.34,15.19-5.11,13.79c-.21,2.08-.61,6-.91,8.08C7441.4,6604.78,7441,6607.77,7432.46,6622.06Zm-11.23-21.85v0Zm.25-1.12Zm-34.73-185.66,2.68,6.36-1.28-7.24Zm9.78-22.28,2,.08,6.23-10.23-.89-.43Zm1185.6-285.71,1.06.34-2.32-3.34-7.67-14,.09-.15-3.54-1.67-11.54-7-9-9.75-14.68-3.45-18.54-2-5.17-6.71,0,.09c-.72,4.2-1.26,7.22-1.67,9.42,1,1,2.2,2.24,3.41,3.42l31.9,17.25,21,6.38Zm-1128,185.35,7.57,4.66-1.61-5.3Zm-10.2-19.65,17.59-1.89,4.13-3.29,4.29-4.13-10.69-2.39-7.39,2.4-20.51,5.09-9.85,3.24.6,8.28Zm454.69-239.56,0,.06Zm39.19-28.93-.06.12Z" transform="translate(-4499.86 -2851.68)"/><polygon class="g" points="3391.69 4435.53 3385.05 4452.18 3383.71 4464.31 3377.22 4481.62 3358.39 4496.3 3357.46 4504.67 3361.57 4525.01 3366.99 4538.82 3375.5 4554.05 3368.16 4566.81 3372.18 4584.89 3377.22 4586.09 3389.37 4604.73 3400.24 4613.45 3416.69 4610.98 3426.34 4600.12 3426.69 4592.41 3429.7 4569.72 3422.63 4551.2 3420.14 4527.13 3415.39 4517.26 3421.6 4489.63 3415.06 4478.5 3413.6 4464.44 3412.77 4449.18 3406.24 4442.34 3399.17 4431.28 3391.69 4435.53"/><path class="f" d="M7921.78,7472.31l-24.61,3.69-15.67-12.57-10.8-16.58-7.31-1.75-6.29-28.28,6.42-11.16-6.25-11.38-5.76-14.66-4.6-22.81,1.58-14.28,20-15.57,5-13.38,1.35-12.23,8.5-21.32,19.13-10.86,11.81,18.46,8.47,8.87,1,19.06,1.19,11.32,7.47,12.72-6.32,28.11,4,8.26,2.54,24.51,7.51,19.7-3.3,24.84-.49,10.91Zm-18.75-18,8.29-1.25,4.74-5.34.26-4.94,2.67-20.11-6.62-17.34-2.45-23.63-5.52-11.48,6.1-27.16-5.61-9.55-1.7-16.28-.66-12-4.94-5.36-2.6,6.52-1.78,13.22-7.5,20-17.7,13.8-.27,2.44,3.61,17.89,4.84,12.31,11,19.73-8.26,14.35,1.75,7.88,2.76.65,13.5,20.71Z" transform="translate(-4499.86 -2851.68)"/><polygon class="g" points="3667.26 4020 3665.91 4032.18 3664.96 4041.47 3669.91 4049.68 3678.12 4062.56 3682.74 4066.63 3690.69 4060.81 3698.86 4053.72 3694.87 4041.21 3689.36 4034.77 3682.6 4031.75 3674.05 4024.99 3667.26 4020"/><path class="f" d="M8182,6931.52,8170.06,6921l-15.85-25.48,4.61-42.71,21.19,15.54,7.83,6.19,7.7,3.45,8.37,9.79,6.69,21-14,12.07Zm-6.29-40.29,8.29,13.27,2.83-2.45-1.29-4.05-2.64-3.09Z" transform="translate(-4499.86 -2851.68)"/><path class="g" d="M8372.63,6870.61l11.93-2.91,15,1.66,5.66,2.32,16.09,8.56,4.17,2,13.51,6.59,11.24,5.86,24,4.9,11.36,2.76,7.51,16.43s11.69,9.32,12.46,10,17.12,10.07,17.12,10.07l1.93,4.19,8.19,10.32,6.07,11.58,1,13.68-4.81,4.27-5.77-.64-9.58-.21-14.18-4.67-22.58-7.86-2.06-12.09s-9.23-8.52-10-9-21.37-11.16-21.37-11.16-6.17-9-6.83-10.31-7.1-7.29-7-8-5-8.19-5-8.19a39.84,39.84,0,0,0-2.24-5c-.51-.54-12.58-3.9-14.5-4.37s-17.28-7.25-17.28-7.25l1.76-5.7s.38-3.77-2.82-5.34a42.39,42.39,0,0,0-7.32-2.59l-13.62-4.62-7.1-7.35Z" transform="translate(-4499.86 -2851.68)"/><path class="f" d="M8538.49,6993.66l-9.87-1.09-10.67-.24-15.64-5.15-28.5-9.92-2.49-14.61c-2.53-2.31-5-4.54-6.11-5.49-3.77-2-20.49-10.7-20.49-10.7l-2.29-1.2-1.46-2.13c-4.51-6.6-6.23-9.28-6.95-10.47-.52-.6-1.34-1.43-2.15-2.28-2.87-3-5.09-5.3-6-8.09-.78-1.3-2.41-3.78-3.7-5.65l-1.12-2.14-.17-.43c-3.4-1-8.2-2.36-9.4-2.65-.81-.19-2.8-.67-19-7.83l-8.39-3.71,2.8-9.05-1.1-.3-.84-.24-16-5.43-42.09-43.56,46.54,18.5,10.5-2.56,18.26,2,7.93,3.3L8430,6873l23.71,11.91,22.55,4.62,16.59,4,8.57,18.74,10.24,8.2c1.78,1.12,9.39,5.56,16.14,9.45l2.85,1.64,2.78,6,8.47,11,7.06,13.47,1.58,20.89Zm-17-21.87,7.55.16-.31-4.09-4.63-8.84-9.43-12.87c-14.37-8.3-15-8.85-15.77-9.48-1-.81-12.25-9.8-12.25-9.8l-1.93-1.53-6.45-14.13-6.49-1.57-25-5.11-10.58-5.52c1.1,1.24,2,2.8,3.64,6.95a64.12,64.12,0,0,1,5,8.15c.54.6,1.24,1.3,1.92,2,2.83,3,4.12,4.34,5.07,6.18.59,1,3.08,4.68,4.72,7.08,5.42,2.83,18.63,9.72,19.27,10.07,1.15.63,1.9,1,12.06,10.41l2.59,2.38,1.63,9.55Zm-88-40,0,0Zm12.44-11.91c0,.16,0,.33-.06.5C8445.92,6920.18,8445.94,6920,8446,6919.85Zm-37.25-31.65c3.86,1.66,7.12,3,8.06,3.32,3.85.93,6.87,1.75,9.27,2.48l-17.6-9A16.26,16.26,0,0,1,8408.7,6888.2Zm-17.7,4.18h0Z" transform="translate(-4499.86 -2851.68)"/><path class="g" d="M8556.32,6872.78l1.42,13.24,5.27,8.46,5.47,11.09,6.58,3.15s.87-1,1.88,4.08l1,5.05,5.7,3.65,2,1.1.18,3.47s5.42,2.14,6.31,1.75,7.09-2.25,7.09-2.25l6.49-.75,4.59,4.88,4-3.51,5.87-3,9.64,1.06s4.49,0,5.27.58,12.26,1,12.26,1l2-3.24,1.93-1.62s3.22-9.12,3.65-9.92a31.43,31.43,0,0,0,1.23-5.51c.09-.84-1.15-4.93-.87-7.44s-1.46-6-.69-7.25,1-9.26,1-9.26l.6-5.45s-.42-2,.27-2.47,2.43-2.95,2.21-3.78,3.91-7.85,3.91-7.85,1-4,2.31-10.35a53.28,53.28,0,0,0,1.29-8.9c.13-1.4-2.35-5.7-2.94-7.42s-1.37-4.92-2.41-5.74-7.43-6.25-7.43-6.25a15,15,0,0,0-1.23-3.32c-1.26-3-1.17-3.8-2.26-6.75s-5.71-6.56-6.89-9a9,9,0,0,0-2.76-3.41c2.36-.87,8.48-3.47,8.48-3.47l3.65-6.6a7.19,7.19,0,0,0,1.34-1.89,34.88,34.88,0,0,1,2.27-3.61l.63-5.68-2.49-2.09a52.67,52.67,0,0,0-7.54,0c-2.1.35-2.37-.25-4.62-1.35s-8.64-6.94-9.25-8-4.46-1.89-4.46-1.89l-4.26,2.24-1.35,2.11s-.31,2.51-.37,3.35-2.25,4.69-2.66,6.13l-.41,1.44s.83,5,.5,5.61-6.66,4.49-8.15,6.28,1.43,6.63,1.43,6.63l-.16,1.45-5.88,6.48a40.43,40.43,0,0,0-2.17,3.49c-.92,1.71-2.87,3.9-3.66,6a55.14,55.14,0,0,0-1.63,7.09s-3.88,4.91-5.72,6-3.67,3.08-2.12,5.26-1.59,5.67-2.62,5.76-7,1.18-7,1.18a17.79,17.79,0,0,0-1.91,4.44c-.31,1.76,1.17-.05-.62,4s-.23,9.95-.93,10.11-.85-.76-2.64-.08-2.85,1.12-2.85,1.12-2.83,4.18-3.39,4.13-7.57.76-7.57.76Z" transform="translate(-4499.86 -2851.68)"/><path class="f" d="M8653,6936.41l-6.07-.25c-9.24-.39-13-.8-15.23-1.56-.87-.06-1.82-.05-1.9-.06l-1.1-.07-6.56-.72-2,1-10.58,9.19-7.84-8.33-.44,0c-1.48.44-4.4,1.33-5.37,1.69-3.69,1.67-7.78.69-13.91-1.74l-6.15-2.43-.24-4.62-6.91-4.41-1.57-7.82-6.33-3-6.82-13.83-6.25-10-2.22-20.76,12.17-11.18,3.33-.38,3.57-.4,0,0,1.73-2.63,2.21-.86a21.31,21.31,0,0,1,1.29-5.34,13,13,0,0,1,.21-2.35,26,26,0,0,1,3.2-7.9l2.41-4,4.58-.82.66-.12c0-.34.1-.68.17-1a15.09,15.09,0,0,1,7-9.51c.42-.38,1.09-1.12,1.79-1.92a43.08,43.08,0,0,1,1.63-6.22,27.7,27.7,0,0,1,3.44-6.08c.3-.43.59-.83.81-1.2a52,52,0,0,1,2.81-4.5l.79-1,2-2.24c-1.15-4.58-.39-8.76,2.29-12a27.45,27.45,0,0,1,5.25-4.54l-.22-1.35,1-3.67a36.79,36.79,0,0,1,2-4.81l.44-.9c.12-1.08.25-2.22.25-2.22l.28-2.34,4.09-6.37,10-5.27,3.7.83c6.34,1.42,9.06,3.82,10.48,5.79a52.91,52.91,0,0,0,5.85,5.06l.08,0a67.4,67.4,0,0,1,7.86.09l3.39.21,9.31,7.82-1.52,13.78-1.51,2.16c0,.06-1,1.41-1.45,2.21a13,13,0,0,1-2.14,3.39l-4.25,7.68a19.54,19.54,0,0,1,3,5.18c.6,1.62.91,2.72,1.21,3.78a18.22,18.22,0,0,0,.86,2.51c.19.45.38.88.55,1.3,1.85,1.57,4.34,3.68,5,4.2,3.35,2.65,4.53,6.45,5.48,9.51l.31,1c.12.29.39.84.68,1.43,1.61,3.37,3.12,6.55,2.79,10.28a67.64,67.64,0,0,1-1.45,10c-1.34,6.72-2.45,10.95-2.45,10.95l-.36,1.37-.73,1.24c-1,1.66-2.06,3.63-2.63,4.78a14.92,14.92,0,0,1-2.46,5.73l-.5,4.55a57.94,57.94,0,0,1-1,10,21,21,0,0,1,.59,6.94c0,.53.29,1.55.45,2.34a16.06,16.06,0,0,1,.42,5.11c0,.06-.74,6.17-2.39,9.24-.41,1.06-3,8.48-3,8.48l-.94,2.68-2.8,2.33Zm-12-20.07.08.05h0Zm-2.73-1.4c.84.09,2.21.2,3.83.31l.42-.35c1.67-4.7,2.44-6.68,2.86-7.68.13-.5.26-1.15.37-1.73a29.46,29.46,0,0,1-.75-7.91c-.06-.36-.16-.72-.23-1.07-.49-2.19-1.27-5.63.16-9.23.17-1.3.35-4,.41-6l.52-5a12.21,12.21,0,0,1,3-9.51,41.26,41.26,0,0,1,4.16-8.65c.38-1.59,1.07-4.55,1.85-8.45.66-3.28.89-4.88,1-5.86-.22-.49-.48-1-.72-1.5-.67-1.41-1.26-2.72-1.55-3.57l-.52-1.6-.26-.84c-2.31-1.94-6-5.07-6-5.07l-4.06-3.45.27-3.08-.25-.6a36.75,36.75,0,0,1-1.73-5c-.15-.52-.3-1.07-.55-1.79-.42-.57-1.38-1.61-2-2.26a27.29,27.29,0,0,1-4.56-6l-10.72-6.9-.43,3.91-7.65,8.44c-.32.48-.81,1.23-1.21,2a34,34,0,0,1-2,3.15,14.27,14.27,0,0,0-1.14,1.74c-.17.53-.71,3-1,5l-.44,2.62-1.65,2.08a55.57,55.57,0,0,1-5.2,5.82,14.14,14.14,0,0,1-1.33,6.32c-1.68,3.66-5.51,8-10.78,8.7a23.43,23.43,0,0,1-1.31,3.56,23.41,23.41,0,0,0,.07,3.13c.59,9.73-5.44,12.21-8.06,12.83l-2,.47c-2.22,2.7-5,5-9.16,5l-2.69.27.58,5.36,4.51,7.35,3.89,7.89,1.89.91c7,1.9,8.4,9,9,12.06l.15.75,7.82,4.52,1.21-.36.88-.26,12.54-1.45,1.91,2,6.67-3.43,12.21,1.34A25.07,25.07,0,0,1,8638.25,6914.94Zm-50.06,3.33-.28.12ZM8645,6897s0,0,0,0S8645,6897,8645,6897Zm17.78-15.16h0a9.54,9.54,0,0,0,1.49-1.44A20.27,20.27,0,0,1,8662.81,6881.85Zm-16.92,3.51-.07.11Zm2.78-13,.06.25Zm1.68-6.9h0Zm-76.65,5.29.48.2Zm82.49-25.92Zm-.24-2.89c0,.1,0,.19,0,.29Zm-86.21,14.41c.3,0,.52,0,.75,0-.25,0-.5,0-.75,0Zm13.53-14.38,0,0Zm4.34-10.4.52-.07Zm53-14Zm-52,4.3-.19.11Zm41.27-39.21c.57,4.22.44,6.86-1,9.53a10.55,10.55,0,0,1-2.25,2.88l10.12-3.74c1.1-.41,3.06-1.21,4.77-1.92l.94-1.7a16.38,16.38,0,0,1-4.05-1.67l-.86-.45a38.06,38.06,0,0,1-6.75-4.84l-.44.91Zm-5.92-9a9.5,9.5,0,0,0,1,1.43A12.54,12.54,0,0,1,8623.9,6773.62Z" transform="translate(-4499.86 -2851.68)"/><path class="g" d="M8709,6825l-13.38,7.52-5.11,10.46-1,9.21,2.15,9.87a3.77,3.77,0,0,1-.38,3.46c-1.16,1.71-2.49,8.63-2.31,9.5s2.1,6.73,2.1,6.73l2.18,11.39,7.1,23.63-.83,7.56,5.61,3.48,5.68-2.24s1-4.24.35-5.73-.63-4.31-.92-6.88-1.24-10-1.86-11.79-3.17-11.73-3.17-11.73-.94-2,.92-2.24,8.07-2.06,8.07-2.06,1.65,2.45,2.88,2.86,1.49,7.92,1.49,7.92l2.87,7.56,4.6,5.31s3.89,1.31,4.45.49a18.2,18.2,0,0,0,3.84-6.11,54.25,54.25,0,0,1,3.42-7.28s.52-1.48-2.27-3.12-4.36-3.66-5.89-4.75-5-7.15-5-7.15-3.42-2.78-4.7-4-8-2.56-5.87-6,7.19-6,8.47-7.38,4.66-5.93,4.66-5.93a8.39,8.39,0,0,0-3.74-2.42c-2.72-1-6.72-.49-6.72-.49l-3.33,1.53s-3.29,2-3.72,3.31-6.09,7-6.09,7a3.4,3.4,0,0,1-3.22-1.92c-.91-2.08-1.34-5.91-2.27-6.38s-4.64-5.12-3.63-6.7,2.46-2,3.47-3.42,8.24-5,8.24-5-4.06.45,6.41-2.31,24.51-7.35,24.51-7.35l8-7a13.48,13.48,0,0,1,.85-4.49c.83-1.89,2.63-6.4,2.63-6.4s-.57-3.88-1.73-5a37.57,37.57,0,0,1-3.37-4.42s-4.88.28-4,5.75l.85,5.46s1.56.74-.15,1.11-9.22,4.83-9.22,4.83,1.29-.23-1.77-.2-8.16.66-8.16.66l-7.81,1.11Z" transform="translate(-4499.86 -2851.68)"/><path class="f" d="M8704,6939.28l-15.53-9.64,1.32-11.92-6.65-22.13-2.16-11.31c-.55-1.72-2-6.29-2.16-7.1-.71-3.35.63-10.06,2.36-14.46l-2.17-10,1.13-10.24-2.61.44,2.74-1.62.14-1.25,7.31-15,18.43-10.37,6.09-.13,7.19-1c.72-.09,5.42-.66,8.92-.76l.66-.38a14.66,14.66,0,0,1,13.75-16.57l5.91-.35,3.28,4.94a29.41,29.41,0,0,0,2.07,2.85c2.27,2.12,3.92,5.82,4.64,10.75l.4,2.75-1,2.57s-1.89,4.74-2.76,6.71c.11-.08,0,.42,0,.42v.75l8-.89-8,3.94v.82l-13.1,11.48-2,.66c-.33.11-4.91,1.6-10.75,3.38a17.12,17.12,0,0,1,6,4.9l4.49,6.16-4.55,6.07s-3.86,5.14-5.32,6.74c-.27.29-.55.57-.84.84l1.83,1.51,1.48,1.19.94,1.63c1,1.68,2.27,3.68,2.93,4.55.64.51,1.3,1.1,2,1.75a14.15,14.15,0,0,0,2.33,1.9c7,4.12,8.4,10.71,6.75,15.42l-.8,1.73a44.6,44.6,0,0,0-2.68,5.71,26,26,0,0,1-5.21,8.67c-2.08,3-6.73,6.27-16,3.14l-1.35-.45a22.37,22.37,0,0,1-.56,9.88l-1.26,5.2Zm3.17-41.84.17,0Zm28.29-17.84,0,0Zm-35.32-3.08.54,1.68a12.12,12.12,0,0,1,3.5-1.16l-.07-.17A13.36,13.36,0,0,1,8700.16,6876.53Zm37.59-68.1h0Z" transform="translate(-4499.86 -2851.68)"/><path class="g" d="M8780.16,6795.78l2.07,13.48,7.62,3.69,6.61-11.33s3.75-.78.33-3l-3.42-2.23Z" transform="translate(-4499.86 -2851.68)"/><path class="f" d="M8793.95,6826.39l-21.08-10.21-4.81-31.28,28.59,1.32,5.77,3.75c6.82,4.44,6.27,10.58,5.93,12.36a11.31,11.31,0,0,1-4.48,7.06Z" transform="translate(-4499.86 -2851.68)"/><path class="g" d="M8757,6856.52l8.44-6.62,3.93.23,8.24,1.11s4.78-.81-.23,2.09a19.13,19.13,0,0,0-7.11,7.06l-2.76,1L8764,6860Z" transform="translate(-4499.86 -2851.68)"/><path class="f" d="M8767.28,6872.53l-7.26-3.07-22.33-10.91,24.44-19.18,8.6.53,7,1c6.49-.38,10.27,3.41,11.58,7,.94,2.59,2.15,9.17-6.81,14.36a9.39,9.39,0,0,0-3.19,3l-1.85,3.19Z" transform="translate(-4499.86 -2851.68)"/><path class="g" d="M8779.62,6867.47l-.3,5.07V6875l14.1,1.82,5.15-7.6s-2.56-2-3.33-2.74-5.28-.82-7.82-.86-9.27-.52-9.27-.52Z" transform="translate(-4499.86 -2851.68)"/><path class="f" d="M8798.4,6887.81l-29.35-3.78.1-14-10-16.67,19.75,1.37s6.36.45,8.75.5c6.75.12,11.12.41,14.56,3.55.68.61,2.8,2.29,2.82,2.31l7.44,6Z" transform="translate(-4499.86 -2851.68)"/><path class="g" d="M8816.17,6853.54l-8.85,3.35-5.06,5.89s2.54,1.54,3.41,1.36,7.3,0,7.3,0,5.21-3.15,6.69-2.57,6.58.53,6.58.53l5.2-1a2.85,2.85,0,0,1,.2-1.81c.43-1.3,13.52-7.29.8-7.23s-18.26,1.24-18.26,1.24Z" transform="translate(-4499.86 -2851.68)"/><path class="f" d="M8846.13,6868.79l-19.77,3.65a48.9,48.9,0,0,1-6.48-.3c-.52.27-1.1.58-1.57.87l-2.61,1.57-3.06-.09s-4.07-.15-5.73-.09c-3,.39-6.24-.51-10-2.78l-10.41-6.3,3.65-4.25-40.25-4.42,62.09-13.39c.68-.15,7-1.42,20.39-1.48,2.58,0,9.47,0,13.35,4.66l14.2,1.56-11.69,4.43c.57,4.66-2,8.19-4.68,10.64Zm-30.22,2.41h0Z" transform="translate(-4499.86 -2851.68)"/><path class="g" d="M8851.07,6811.23l-10.36,3.72-3.3,3.25s-.17,3.52,1.12,3.17,15.25,2.92,15.25,2.92l1.34.15,8.71,1.77.93,1.79s-.31,2.8-1.83,3.76-7.24,3.44-7.24,3.44a3.09,3.09,0,0,1-2,1.68c-1.29.23-1.58,2.06-1.58,2.06l-.54,4.86-.18,1.67-.18,1.61-.2,1.78,1,3.53,3.59,2.07a30.61,30.61,0,0,0,4.37-1.19c.32-.32,5.8-3.19,5.8-3.19l5.12-3.58s-.47-3.44,5.33.31l5.8,3.75,15.07,1.73,7.84-1.18s4.48-.35,5.31-.26a40.94,40.94,0,0,1,4.62,1.64,114,114,0,0,0,11.11,3c1,0,5.07,4,5.07,4s1-1.53,1,3.6.59,7.46.37,9.41-3.86,22.15-3.86,22.15a2,2,0,0,1,1.4.15c.52.37,12,.18,12,.18l2.73-6.73,16.79-.39,7,8.26s3.69-3.83,3.46-5.06,9.3-.46,9.3-.46l2.86-1.1s6.36-2.31,6.79-4,2.1-9.17,2.16-9.71l.65-5.89,10.11-8.08,6.2.68,12.34,1.24,16.58,8.52,4.83,3,19.48,4.6,7.8-1.59,2-3.2s-.31-7.39-2.73-8.51-21.87-9.19-21.87-9.19l-5.71-7.13c-.75-.93-.88-4.55-1.39-5.2s1.54-6.14.78-7a18.92,18.92,0,0,1-2.08-5.85c0-.85.22-1.83-2.39-3s-6.56-1.35-7.39-1.44-7.3.56-7.3.56-12.53-9.23-14.87-12.89,2-4.32-4-5.26-7.85,0-10.67-1.18-35.48-2.21-35.48-2.21a11.38,11.38,0,0,0-2.7-1.15c-.84-.09-11.23-.67-16.22-1.51s-12.59-1.11-16.66-.14-12,1.91-13.47,2.11-11.24,1.57-11.16,6,2.4,11.5,2.4,11.5l-8.61,6.37-3.63,4.69-6.14-.68c-1.12-.12-8-1.73-8-1.73s-3.32-1.3-2.95-3.06a81.68,81.68,0,0,0,.3-8.8s-2.81-5.58-3.29-6.26-4.25-2.28-5.87-3S8851.07,6811.23,8851.07,6811.23Z" transform="translate(-4499.86 -2851.68)"/><path class="f" d="M9077.47,6887.46l-14.29,2.91-23.31-5.5-5.91-3.64-14.48-7.44-12.47-1.26-3.44,2.75-.18,1.59c-.19,1.74-2.33,10.82-2.42,11.17-1.23,4.83-5.32,8.27-13.26,11.15l-4.86,1.88-2.34-.19c-.72-.06-1.5-.11-2.25-.14-.67.81-1.41,1.65-2.25,2.52l-7.91,8.23-11.2-13.22-5.09.12-2.74,6.78-6.83.12a114.38,114.38,0,0,1-13-.17l-13.56,3.41,2.83-15.72c1.7-9.43,3.58-20.06,3.76-21.51,0-.19-.08-.71-.13-1.35-.11-1.29-.23-2.84-.29-4.84-4.34-1-10.17-2.86-10.24-2.88-.48-.18-1.73-.7-2.75-1.07-.95,0-2.1.14-2.68.18l-8.84,1.33-18.82-2.15-5-3.23-2.89,1.92s-3.16,1.65-4.56,2.45c-1.91,1.4-4.31,2-8.24,2.89l-3.88.83-10.71-6.17-2.59-9.52,1.31-11.88a14.76,14.76,0,0,1,1.8-5.18c-1.71-.36-3.21-.65-4.23-.82l-3.3.89-4.6-3.36c-3.17-2.53-4.72-6.54-4.48-11.62l.19-4,7.79-7.66,13.68-4.92,1.27-.13c12.14-1.21,14.51-.15,16.25.61,5.33,2.34,8.15,3.67,10.13,6.51.39.56.91,1.32,4,7.53l1.08,2.15,0,2.4c0,1.16,0,2.19,0,3.12l1.75.35h.11l1-1.25,4.12-3.05a39.22,39.22,0,0,1-.94-7.2c-.07-4.11,1.75-13.93,20.11-16.4l.89-.11a110.76,110.76,0,0,0,11.54-1.8h0c5.87-1.38,14.84-1,20.71,0,3.46.57,10.82,1.08,13.59,1.27,1.1.07,1.84.13,2.06.16a13.72,13.72,0,0,1,4.14,1.16c32.41,1.1,35.16,2.22,36.82,2.9-.1-.06.3-.09.77-.09a52.13,52.13,0,0,1,7.6.63c2.47.38,7.06,1.1,10,5.19a10.8,10.8,0,0,1,2,5.7c1.63,1.53,4.81,4.17,8.22,6.8a24.84,24.84,0,0,1,5.4-.17,31.48,31.48,0,0,1,10.55,2.31c6.39,2.93,8.15,7.54,8.39,11.24.14.46.35,1.07.5,1.47,2.67,4.08,1.71,8.6,1,11.73.08.41.15.81.21,1.19l2.81,3.5c5.7,2.37,17.72,7.38,19.81,8.35,6.71,3.08,8.44,11.18,8.7,17.42l.14,3.26Zm-11.34-11.57h0Zm-95.81,4.66a33.33,33.33,0,0,1,9.46-.39l.7-.28c.44-.16.91-.34,1.35-.53.49-2.16,1-4.56,1.14-5.26l1-9.59,16.78-13.41,24.62,2.57,11.93,6.13-2.51-3.13a16,16,0,0,1-3-7.75l0-.23c-1.26-3.23-.59-6.43-.06-8.75q-.38-.94-.69-1.89l-1-.09h-.16c-1.7.08-5.78.51-5.81.51l-4,.4-3.2-2.36c-6.42-4.73-14.65-11.28-17.43-15.62-.22-.34-.41-.67-.59-1l-1.09,0a21.52,21.52,0,0,1-7.31-1.11c-3.72-.56-19.6-1.35-32.78-1.78l-2.53-.09-2.19-1.19c-3.61-.25-11.12-.77-15.56-1.51s-10.5-.78-12.58-.29l-.13,0c-3.62.85-9.16,1.61-13.6,2.17l-.77.1c-.49.07-1,.15-1.41.23.35,1.4.75,2.8,1.09,3.84l2.31,7.07-13.45,10-3.42,4.43,1.39.16,7.22-1.06c5.45-.43,6.54-.31,7.26-.23.9.1,2.26.25,7.39,2.35,1.33.43,7,2,8.51,2.29,2.78.34,5.25,1.68,8.75,4.81,6.34,3,6.34,10.47,6.34,13.06,0,2.26.14,3.89.25,5.17a26.91,26.91,0,0,1,.07,5.37c-.07.6-.32,2.21-.69,4.37l24.23-.56,2.91,3.44C8969.54,6880.74,8969.92,6880.63,8970.32,6880.54Zm63-29.27h0Zm17.61-7.53,0,0Zm-17.19,0a9.66,9.66,0,0,0,.64.86C9034.14,6844.32,9033.93,6844,9033.72,6843.72Zm15.95-5h0Zm0,0h0Zm-125.4,26.89a8.71,8.71,0,0,0,1,.13C8925,6865.71,8924.64,6865.67,8924.25,6865.6Zm105-27.73c.12,0,.29,0,.49,0Zm20.89-6.57h0Zm-20.28,1a4.81,4.81,0,0,0,0,.67C9029.88,6832.74,9029.87,6832.52,9029.86,6832.31Zm-40.18-13.9.43.17Zm-136.77,27.36-.26.26Z" transform="translate(-4499.86 -2851.68)"/><path class="g" d="M9053.78,6815.34l1.2,9.92s7.89-2.7,9.44-3.85,12-6.78,12.95-7.24,17.17-14.78,17.17-14.78l1-14.58-7-.77s-7.75,11.3-7.87,12.41-1.84,9-1.84,9l-7.72.85s-6.46,2.24-7.11,3-4.74,4.56-4.74,4.56Z" transform="translate(-4499.86 -2851.68)"/><path class="f" d="M9046.27,6839.13l-3.8-31.45,11.7-3.12c.84-.79,1.75-1.66,2.17-2.11,1.52-1.83,3.61-3.19,11.44-5.91l1.09-.38,1.46-.16c.08-.39.13-.71.17-.93.24-2.21.37-3.45,9.58-16.87l3.49-5.09,23,2.53-2.05,28.69-3.17,2.79c-17.21,15.14-17.93,15.52-19.23,16.19-1.55.8-10.19,5.48-11.72,6.49-.66.5-2.65,2-12.07,5.21Z" transform="translate(-4499.86 -2851.68)"/><path class="g" d="M9045.83,6493l2.72,11.84,30.36-2.07,24.77-12.6s-7.15-7.29-7.84-6.56-34.18,9.28-34.18,9.28l-9-2.83Z" transform="translate(-4499.86 -2851.68)"/><path class="f" d="M9120.88,6493l-39.17,19.93-41.24,2.82-6.61-28.79,18.22-7.86,9.86,3.1c12.89-3.31,26.47-6.91,29.52-7.92a10.52,10.52,0,0,1,4.4-1c4.4,0,7.66,2,15.16,9.7Z" transform="translate(-4499.86 -2851.68)"/><path class="g" d="M8636.15,6705.58,8626,6722.42l4.26,13.47-5.8,8.29s10-1.56,10.54-5.85,2.42-18.49,2.42-18.49Z" transform="translate(-4499.86 -2851.68)"/><path class="f" d="M8629.11,6753.78c-1.15.27-2.18.46-3,.59l-23.87,3.69,16.72-23.91-4.13-13.05,28.72-47.85,4.14,48s-1.91,14-2.4,18.26C8644.24,6748.69,8635.16,6752.35,8629.11,6753.78Z" transform="translate(-4499.86 -2851.68)"/><path class="g" d="M8696.47,6720.45l-4.58,12.39-7.26,1.73,6.64,3.9,5.3-4,8.62-1.92,6,6.21.76,2,8.88,9.29,4.08-1.69s8.68-5.25,8.76-5.21-3.68-9.34-3.68-9.34l1.46-5.09s5.58-9,5-10.69-1.9-2.32-4.31-3.63-7.33-10.48-7.33-10.48l-9.63-1.06s-.64,9.68-1.25,11.31,1.86,8.42,1.86,8.42,5.84.26,1.24,2.05-13.23,1-13.23,1Z" transform="translate(-4499.86 -2851.68)"/><path class="f" d="M8718.21,6762.26l-15.19-15.9-1.25-2.49-.78.18-9,6.79-34.67-20.36,26.82-6.39,7.35-19.89,12.09,8.66a9.73,9.73,0,0,1,.4-1.67c.23-1.4.6-5.41.84-9l.72-10.75,25.72,2.85,2.57,4.77a63.05,63.05,0,0,0,4.26,6.89c3,1.67,6.44,4,8.07,8.8,1.33,3.95.88,8.09-5.24,18.17l-.1.36c4,10.13,4.74,13.7-.89,18l-5.66,4.37-.78-.49-3.29,2-1.39.7Z" transform="translate(-4499.86 -2851.68)"/><path class="g" d="M8675.33,6687l-2.64,9.27,10.76,5.41,7.7-3.37,6.05-8.89,13.17,1.45-.77-8.56-3.19-8.55-5.47-4.7-15.16-3-6.31-.7-3-12.68-12.23-5.59-21.34-2.35s-11-5.45-11.13-6.88,2.16-14.45,1.79-16.19-.52-10.05-3.24-12.56-10-7.84-10-7.84l-8.28-4.3-10.38,5,.92,19.45,5.16,8.71,2.84,4.27,4.79,1.66-2,9.5,11.91,9.92,4.76,6.5,3.7,9.73,13.25,8.24,3.34-7.26-7.76-11.59,6.69-4.28,5.74,2.83,7.37,5.19,7,.77,3.54,3.36,6.67,5,11.72,1.29,4.86,1.67-.31,2.79-10,1.72-5.36-.59-4.43,1.13Z" transform="translate(-4499.86 -2851.68)"/><path class="f" d="M8683.15,6713.08l-22.72-11.41,4.74-16.65.91-8.23-1.42-1.35-4.18-.46-9.15,19.87-26.12-16.26-4.44-11.68-3.19-4.35-15.72-13.09,1.51-7.13-4.33-6.53-6.75-11.37-1.36-28.82,21.17-10.19,14.18,7.49c1.3.95,8,5.82,11,8.59,4.61,4.25,5.62,10.79,6.27,17.13l.13,1.16c.48,2.2.24,4.65-1,13.19,1,.56,2.11,1.14,3.16,1.69L8667,6637l18.31,8.37,2.54,10.55,17.8,3.56,9.54,8.19,4.59,12.33,2,22.5-19.54-2.15-4.23,6.22ZM8636,6652.82l.06.08,0,0Zm-18.91-27.07,5.5,1.9c.27-1.93.54-4.06.62-5.1-.07-.52-.15-1.14-.22-1.84a43.9,43.9,0,0,0-.7-4.89c-1.89-1.56-5.16-4-7.54-5.79l-2.58-1.34.45,9.64Zm6.24-2.37c0,.14,0,.28.09.44C8623.41,6623.7,8623.38,6623.55,8623.35,6623.38Z" transform="translate(-4499.86 -2851.68)"/><path class="g" d="M8560.87,6515.55l-3.18,15.51,4.1,12.88,5.92,8.37,10.78,4.78s-1.44-12.88-2.28-14.1-2.34-15.8-2.34-15.8,5.23-6.69,5-7.89-9.08-7.11-9.08-7.11l-6.36,2.47Z" transform="translate(-4499.86 -2851.68)"/><path class="f" d="M8590.71,6573.79l-29.79-13.21-8.48-12-5.39-17,4.9-23.85,19.07-7.13,4.46,3c10.43,7,12.49,9.48,13.38,13.36,1,4.23-.56,7.91-4.3,13.14.43,3.67.9,7.26,1.22,8.91.86,2,1.72,5.94,3,16.92Z" transform="translate(-4499.86 -2851.68)"/><path class="g" d="M8477.23,6284.55l-7.65,12.39-1.21,11-6.73,2.05-13.9,9.49,4.92,10.43,13.85,6.43,1.84,3.39,12.26,7.48,13.67-2.72,9,11.06,6.76,13,2.35,4,13.27,7,8,4.72s21.4-9.49,21.13-10.74,7-8.09,1.3-11.82-25.51-10.45-25.51-10.45a37,37,0,0,1-3.88-3.14c-3.13-2.71-19.92-11.91-19.92-11.91s-3-4-4.82-3.92-8.42-11.1-8.42-11.1-4.57-10.58-4.45-11.61l1.13-10.28Z" transform="translate(-4499.86 -2851.68)"/><path class="f" d="M8533,6395.76l-12.61-7.39-15.45-8.12-3.84-6.5-6.55-12.55-4.39-5.41-11.5,2.29-18.07-11-1.53-2.84-14.15-6.56-10.27-21.77,22.47-15.33,1.74-.53.72-6.52,16.16-26.18,25.23,28.48-1.41,12.79c.69,1.84,2,5,3.19,7.81,1.47,2.45,3.22,5.1,4.35,6.61a19.21,19.21,0,0,1,6.42,5c6.76,3.73,16.78,9.45,19.94,12.18.9.78,1.55,1.32,2,1.7,6.25,2.16,20.58,7.3,26.3,11.07,2.89,1.91,11.51,9.12,3.27,23-1.24,6.06-9.11,9.55-27.2,17.58Zm11.7-20.12v0Zm-25-10.92,14.56,7.89c3.95-1.81,7.87-3.67,10.59-5.05-4.85-2.06-11.75-4.63-17.59-6.61l-1.85-.84a38.78,38.78,0,0,1-5.47-4.26c-.88-.71-3.74-2.46-7.3-4.55Zm-37.17-28.44,7.57-1.51a98.69,98.69,0,0,1-5.44-8.43l-.59-1.15c-5.64-13.09-5.51-14.33-5.24-16.81l.64-5.74-.14-.16-1.47,13.3-11.72,3.58-4.72,3.21,12.52,5.82,2.14,4Zm18.94-14.38h0Z" transform="translate(-4499.86 -2851.68)"/><path class="g" d="M8606,6271.63l18.78-3.26,5.72,11.33,11,8,8,4.33,2.9,17.25,13.24,11.46,7.75,2.13,3.61,6.71-5.43,9.76-12.25,2-2.09,8.25-7.4,3.53s-4.42,2.43-4.51,2.89,1.53,8.78,1.53,8.78-1,3.74-1.93,4.7-7.32,3.93-7.32,3.93l-10.29-11.6a29.53,29.53,0,0,0-5.91.16c-1.7.42-14.55,9.34-14.55,9.34l-11.09.74-3.31-.85s-7.39-4.73-7.14-7,4.42-9.3,4.42-9.3,7.46-3.6,8.37-4.17,11.74-4,12.4-4.86,7.78-1.36,9.46-3.78,3.21-1.69,4-3.58,1.78-6.31.86-7.82,9.76-14.18,9.76-14.18-.26-1.44-1.63-6.11,4.83,3.08-1.37-4.67-7.51-8.74-7.51-8.74l-8.21-5s-9-6-9.85-8S8606,6271.63,8606,6271.63Z" transform="translate(-4499.86 -2851.68)"/><path class="f" d="M8635,6386l-11.75-13.25c-2.65,1.69-6.93,4.56-10.5,7l-2.34,1.63-15.58,1-6.52-1.66-1.39-.89c-8.85-5.66-12.5-10.83-11.84-16.78.13-1.2.48-4.43,5.78-13.4l1.59-2.69,2.81-1.36s6.25-3,7.65-3.77c1.06-.67,2.33-1.11,6.08-2.44,2-.71,4.34-1.5,5.73-2.09,2-1.39,4.1-1.68,6.24-2.39.6-.14,1.3-.29,2-.48a15.17,15.17,0,0,1,1.75-1.64c-1.27-5.16,1.89-10.48,8.63-18.79l-.2-.69a15.22,15.22,0,0,1-.5-2.35c-2.75-3.39-4.22-5.07-4.91-5.81l-7.15-4.34c-11.85-7.87-13.17-10.92-14-12.74-.67-1.56-1.93-4.45-.86-17.39l.66-7.94,34.15-5.93,8,15.92L8647,6279l11.83,6.4,3.12,18.55,8.67,7.51,9.75,2.68,8.36,15.56-10.58,19-10.51,1.75-1.63,6.4-9.36,4.47.3,1.54.46,2.32-.6,2.27c-1.68,6.42-3.79,8.54-4.58,9.34s-2.27,2.28-10.29,6Zm-10-34.58c1,0,2.06.05,2.95.11l4.25.27,2.84,3.2c0-.34.1-.67.18-1,1-5.12,5-7.32,9.64-9.88l3.57-1.71,2.57-10.09,11.13-1.86-1.46-.4-15.63-13.54.46,2.93-3,3.8c-2.65,3.15-5.42,6.71-7,8.92a26.81,26.81,0,0,1-2.07,10.51,13,13,0,0,1-5.73,6.29A13.9,13.9,0,0,1,8625,6351.46Zm-25.09,10,3.41-.23c1.67-1.14,3.14-2.14,4.44-3l-1.93.68c-1.28.45-2.42.85-3.1,1.11C8602.26,6360.32,8601.41,6360.75,8599.95,6361.49Zm28.52-13.43h0Zm-12.45-12,.07.11Zm-2.26-1.83Zm24.55-36.56,1.37,1.7.82,1-.29-1.7Zm-21.35-17.47c1.07.8,2.32,1.72,3.56,2.56l-1.47-2.92Z" transform="translate(-4499.86 -2851.68)"/><path class="g" d="M8590.94,6385.25l-4.57,5.6,4.42,6,8.9,4.17s5.4,2.75,5.62,4.19,2.87,3,2.87,3,12-1.38,12.39-2.19,1.71-7.83,1-8.71-10.18-5-11-5.68-6.62-1.61-7.42-2-8.86-4.07-8.86-4.07Z" transform="translate(-4499.86 -2851.68)"/><path class="f" d="M8621,6416.77a111.66,111.66,0,0,1-11.66,1.7l-3.48.4-3-1.8a18,18,0,0,1-6.15-5.9c-.54-.33-1.19-.7-1.73-1l-11-5.12-10.73-14.55,13.18-16.14,10.58,1.17,1.52.7,8.1,3.72,1.18.26c3.61.78,6.16,1.32,8.36,2.8.69.36,1.85.92,3.11,1.51,6.34,3,8.24,4,10,6.07,5.72,6.71.62,19.62.56,19.74C8628.24,6414,8625.55,6415.7,8621,6416.77Zm-5.51-13.13a0,0,0,0,0,0,0A0,0,0,0,1,8615.5,6403.64Zm1.42-7.13Z" transform="translate(-4499.86 -2851.68)"/><path class="g" d="M8569.32,6227.75l7.54,8.46,6.2,10.4-.76,6.88-3.56,6.11,15.88-2.53,9-6h5.21s7.24-.9,7.68-2.68,6.2-13,6.2-13,1.48-3.18.52-4.72-12.23-4.4-12.23-4.4l-10.1,3.26-5.33,8.27a5.77,5.77,0,0,1-5-2.86c-1.65-3-8-7.32-10.59-9s-5.6-3.93-7.67-2.66S8569.32,6227.75,8569.32,6227.75Z" transform="translate(-4499.86 -2851.68)"/><path class="f" d="M8598.48,6266.88l-39.57,6.29,13.39-23,.14-1.27-3.92-6.58-10.65-11.95,1.54-5.44c.47-1.68,2.42-7.39,7.5-10.53,7.51-4.64,14.95.29,18.12,2.4l.61.4a83.26,83.26,0,0,1,7.44,5.42l1.18-1.84,16.42-5.3,2.87.73c14.2,3.59,16.61,6,18.46,8.94,3.52,5.67,1.23,12,.08,14.52-2.46,4.81-5.24,10.47-5.74,11.79-1.73,7.13-10.09,9-16.23,9.8l-3.37.07Zm9.66-26.16.45-.08c.43-.93,1-2,1.6-3.33l-2.6.84-1.66,2.57Z" transform="translate(-4499.86 -2851.68)"/><path class="g" d="M8444.05,6144.13l9.25,5.81s7.36,9.15,7.63,9.68,8.34,7.8,8.34,7.8l2,0L8479,6165l8.1,4.37,5.52,7.53,7.55,6,8.22,7.66,4.34-.37s6.57,2,6.73,2.75,7,5.79,7,5.79l9.32,5.12s15.34,2.11,15.37,1.7,4.06-6.19,4.06-6.19a51.06,51.06,0,0,0-5.85-5.91c-2.35-1.77-5.57-.72-12.83-4.06a54.83,54.83,0,0,0-15.51-4.13c.44-.08-4.87-1.79-4.73-3.75a16.94,16.94,0,0,1,.14-2c.22-2,1.39-4.93-6.24-10s-25.2-10.41-25.2-10.41-18.81-10.55-19.56-11.48a51.75,51.75,0,0,0-4.7-3.91l-16.43-1.81-7.6-2.82Z" transform="translate(-4499.86 -2851.68)"/><path class="f" d="M8553.85,6215.61c-3,.71-7.71.06-19.46-1.56l-1.88-.26-12.13-6.76a72.5,72.5,0,0,1-7.41-5.95l-1.34-.46-6.86.58-8.72-8.12-51.23-5.18,38.29-6.59-2.89-3.95-2.27-1.22-5,1.51-7.56.16-3-2.74c-8.06-7.27-9.41-8.64-10.2-10-1.09-1.45-4.17-5.29-5.82-7.35l-8.14-5.12-76.13-52.22,84.6,31.38,18,2,2.26,1.71a59.57,59.57,0,0,1,5.29,4.34c2.3,1.47,10,5.93,16.86,9.76,4.4,1.38,19.09,6.2,26.82,11.35,6.64,4.42,10.18,9.19,10.88,14.75a61.32,61.32,0,0,1,14.07,4.33,23.46,23.46,0,0,0,6.39,1.95,18.36,18.36,0,0,1,8.35,3.26,56.18,56.18,0,0,1,7.5,7.47l5.12,6.05-4.53,6.5s-1.37,1.94-2.4,3.5l-.14,2-3.45,2.83A9,9,0,0,1,8553.85,6215.61ZM8509.41,6195c0,.11,0,.22.07.33C8509.46,6195.27,8509.44,6195.16,8509.41,6195Z" transform="translate(-4499.86 -2851.68)"/><path class="g" d="M8553.38,6983.11l-4.47,4.59-3.89,7.1,6.08,9,28.39-2.64,11.41-.47,7.43.82,16.6,1,24.53-7.23,26-1.32,11.71-1,21.08-9,8.49-6.41,18.36-4.39,12.22-10.56,13.17-5.6-43,14.17-22.91,8.64-15.63,5.94-13-4.78-19.62-6.49-7.94,3.44-19.54,7.52s-.39-.31-4.61-.51-23.81,4.42-23.81,4.42l-11.87-4.55-16.79-3.36Z" transform="translate(-4499.86 -2851.68)"/><path class="f" d="M8679.72,7003.09l-13.36,1.15-25.14,1.28-25.1,7.39-25.56-1.9-10.64.44-33.94,3.16-13-19.26,6.45-11.75-18.64-18.9,51.43,10.45,8.93,3.42c9-2.06,19.36-4.16,23.55-4,1.08,0,2.08.11,3,.19l17-6.52,11.14-4.85,33.09,11.29,35-13.22,43.46-14.32,7.26,19.28-11.69,5-12.9,11.15-18.71,4.47-8.93,6.36Z" transform="translate(-4499.86 -2851.68)"/><polygon class="g" points="4289.23 4089.82 4280.38 4096.99 4269.67 4107.24 4266.68 4118.77 4261.09 4124.51 4275.99 4128.99 4288.59 4109.33 4303.63 4098.55 4313.96 4083.39 4289.23 4089.82"/><polygon class="f" points="4280.47 4141.11 4241.84 4129.49 4257.39 4113.54 4260.42 4101.82 4273.89 4088.98 4284.48 4080.4 4337.94 4066.51 4311.12 4105.86 4296.21 4116.56 4280.47 4141.11"/><polygon class="g" points="4230.79 4131.11 4218.11 4129.71 4212.76 4131.2 4211.12 4135.34 4228.85 4143.09 4236.17 4137.8 4230.79 4131.11"/><polygon class="f" points="4230.13 4154.9 4197.87 4140.8 4205.06 4122.65 4217.25 4119.24 4236.16 4121.32 4251 4139.79 4230.13 4154.9"/><path class="g" d="M8919.8,6963l-3.09,7.46-6,14.35-1.35,12.26,15.32,7.09,4.3,8.89,12.37,9,12-2.56s2,1.16,3.35.37,9.86-4.87,10-6.37l1.64-14.9c.28-2.51,5.8-18.86,5.8-18.86s3.83.79,2.81-5.44-.43-9.29-.87-12.23,2-18.35,2-18.35l3.73-13.73,8.55-11.49,3.07,4.74,5.36,8.62,5.71,7.6s-2.43,11.14-5.12,12.11,3.31,4.27,3.31,4.27l5.52,2.47,8.81,1,2.86,16.94.6,14.3,11.71,16.8,2.12,4.12-2.45,6.59,21.39,10,2.63,2.74,4.32,8.17-1.6,9.42,7.4,14,6.34,5.85,9.68,6.16,2,35.41-5.58,25.16-2.11,13.75-3.31,14.6-10.38,20.41-4.38,11.87-2.78,9.25L9045,7211.4l-2.55,7.77,1.22,12-.83,3.72s-22.61,16.58-23.16,17.79-4.91,17.68-4.91,17.68l-1.5,8.58-9.8,13.48s-6.55,10.21-7.15,11.25,7.77-7.84-7.9,2.75L8972.71,7317l-6,12.47-14.54-2.75-14.72,6.76s-3.07.74-3.91,2.64-16.25,3.29-16.25,3.29-12.42-7.8-13-9.59-1.75-6.6-1.56-8.26.56-12.72.69-13.94,2.78-6,2.78-6,8.14-8.44,8.76-10.27,2-2.83,2-6.7-10.07-16.28-10.07-16.28l-8-.88-6.2,17.81c-2.69,5.21-9,12.5-9,12.5l-3.08-.34s-12.22-10.8-12.82-13.1-1.35-3.11-2.37-5.4-6.14-6.86-6.75-8.53-4.24-3.34-4.24-3.34L8834,7272s-2.1-4-7.67,4.24-6.45,12.39-6.45,12.39l-14.8,6.33-14.33,7s2.8-7.74-2.8,2-12.8,12.43-12.8,12.43-4.1,5.55-4.91,6.25-13.46,6-13.46,6l-9.62,11.32a10.56,10.56,0,0,1-.4,2.67c-.48,2.34,11.08,5.35-.66,5.94s-23.44,1.79-23.66,2.43-8.08,2.74-9.05,3.9,0,.42-2.14,4-5.81,11.08-5.81,11.08l-9.47,8.33s-6,.47-7.95-.9-11.8-8.39-11.8-8.39-3.46-3.25-2.62-7,7.13-13.59,7.13-13.59-.62-8.66,1.12-10.15,2-13.54,2-17.68-2.92-11.37-2.92-11.37-2.94-12.05-4.46-14.34-9.65-22.17-9.65-22.17l3.31-20.91-9.77-11.83s.14-13.39.06-14,7.07-15.54,7.07-15.54l10.45-25.55s10-9.49,9.71-10.8,2.82-2.89,6.25-7.06,4.17-5.47,9.43-7.8,10.22-2.79,14.6-5.2,25.26-16.36,25.26-16.36l8.58-18.81s1.75-24.39,3-25.52-5.4-11.62-5.4-11.62l19.93-2.46s10.66-6.45,12.32-10.93.89-3.29,1.29-11.72-.14-5.54,1.11-10.06,1.47-6.49,3.52-9.72,6.74-11.18,6.74-11.18l6.88-4.75,7.32-1.06s6.72-3.24,10.89,1.2S8834,7031.5,8834,7031.5l4.84-3.46,5.59-24s.1-16.52,2-18,10-13.55,10-13.55-4-2,5,.55l9,2.52,7.72-8.49s1-1.2,2.91-3.29,10.06-2.87,10.06-2.87l6,3.61s14.78-.78,16.06-2.19,0-10.85,5.3-6.25-.86,7.75-.86,7.75Z" transform="translate(-4499.86 -2851.68)"/><path class="f" d="M8972.51,7341.09l-19.07-3.61-12.24,5.61c-3.2,3.73-9.39,5.36-23,6.6l-3.47.31-2.95-1.85c-15.58-9.79-16.39-12.28-17.32-15.15-.1-.32-2.52-7.85-2-12.57.09-1,.22-4.19.34-7.18.13-3.2.28-6.16.35-6.78.11-1,.29-2.64,2.55-7.11-2.07,2.7-3.83,4.76-4.19,5.17l-3.54,4.09-11.7-1.28-2.45-2.17c-14.59-12.89-15.33-15.74-16-18.25a4.29,4.29,0,0,0-.53-1.18c-.33-.62-.68-1.3-1.06-2.12-.54-.74-1.38-1.6-2.14-2.45s-1.73-1.9-2.46-2.81l-17.09,4.14c-3.8,5.74-4.69,8.66-4.69,8.69l-1.12,5.21-4.81,1.72-14.8,6.33-13.36,6.53a40.22,40.22,0,0,1-13.81,13.55c-3.56,4.73-4.42,5.45-5.06,6-1.17,1-1.92,1.65-13.87,6.67l-3.31,3.9a10.15,10.15,0,0,1,1.57,9c-2.25,8.12-11,8.55-14.68,8.73-9.62.49-17.26,1.26-20.11,1.7a38.57,38.57,0,0,1-4.27,1.69l-1.3.45c-.23.42-.49.88-.79,1.39-2,3.37-5.45,10.42-5.48,10.47l-.9,1.82-13.58,11.95-3.43.26c-6.39.49-11.31-.42-14.62-2.71-2-1.38-11.91-8.47-11.91-8.47l-1.08-.88c-3.56-3.35-7.17-9.76-5.61-16.77.87-3.89,4.11-9.75,6.75-14.09-.11-6.57,1-10.28,2.59-12.67a87.25,87.25,0,0,0,.61-12.18,37,37,0,0,0-2.21-7.83l-.42-1.32a116,116,0,0,0-3.34-11.57c-.81-1.36-3-5.66-10.3-23.49l-1.09-2.67,3-19.16-9.21-11.15,0-3.77s.12-10.65.08-13.11c-.33-2.93.06-4.13,8.07-20.81l11-27,1.61-1.53c2.71-2.56,5.6-5.51,7.06-7.15a16.94,16.94,0,0,1,4.91-6.6,28.93,28.93,0,0,0,3.13-3.17l.8-1c3.42-4.19,5.68-6.71,12.4-9.69a62.53,62.53,0,0,1,8.35-2.88,28.53,28.53,0,0,0,5.48-1.93c2.61-1.43,14-8.93,22-14.27l6.6-14.46c.89-12.1,1.64-18.95,2.46-23.07-.88-1.72-2.28-4.14-3.43-6l-8.71-13.75,33.77-4.17a38.76,38.76,0,0,0,6.47-5.18c.13-.37.24-.66.3-.92a9.46,9.46,0,0,1,0-1c0-1.33,0-3.18.15-6.09.12-2.35.15-3.78.18-4.73a19.56,19.56,0,0,1,.93-6.28l1-3.54a31.72,31.72,0,0,1,4.17-10.27c2-3.12,6.55-10.88,6.55-10.88l1.15-2,10.74-7.42,8.41-1.21c6.57-2.5,15.25-2.16,21.18,4.17a30,30,0,0,0,4,3.24l3.35-14.4c.2-18,2.36-21.89,5.42-24.48,1-1.14,3.39-4.44,5.79-7.9a10.11,10.11,0,0,1,.57-2.27c3.48-9.2,13.12-6.52,18.3-5.07l2.91.81,3.38-3.72c0-.06,1.12-1.35,3-3.4,1.16-1.25,4.62-5,16.66-6.16l3.4-.32,6.13,3.7c1.72-.12,3.4-.27,4.88-.42a12.2,12.2,0,0,1,7.35-8.33c2.56-1,7.65-1.86,13.29,3,.45.39.87.79,1.27,1.18l11.91-4.51-17.61,42.49-.38,3.43,11.94,5.52,4.79,9.89,6.57,4.79,11.83-2.18,1.43-.79,1.17-10.58c.11-1,.4-3.63,6.29-21l1.81-5.34c-.17-2.14-.19-3.82-.21-5.19a17.36,17.36,0,0,0-.09-2.32c-.18-1.23-.66-4.5,2-21.48l.23-1.08,4.24-15.61,18.58-25,16.35,25.61,8.27,11-1,4.62a69.29,69.29,0,0,1-1.81,6.78L9026,6950l4.29,25.91.48,11.3,10.71,15.52,4.2,8.16-.73,2,14.52,6.81,5,5.16,6.64,12.55-1.6,9.42,4.93,9.3,4.37,4,13.36,8.51,2.41,42.1-5.89,26.55-2.12,13.81-4.17,17-10.11,19.87-4.17,11.31-3.72,12.41-10.76,6.6-.69,2.09,1.16,11.48-2,9.13-3.12,2.29c-7.64,5.61-16.54,12.27-20.25,15.25-.89,3.16-2.47,9-3.84,14.12l-1.84,10.5-11.19,15.39s-2.16,3.38-4,6.32a14.92,14.92,0,0,1-3.41,5.51,10.81,10.81,0,0,1-8.8,3.73l-1.39.94-13.37,9Zm-29.57-.81,0,.05Zm-23.16-11.49c2.86-.34,5.58-.75,7.32-1.11a17.71,17.71,0,0,1,6.69-3.88l17-7.82,10,1.9,3.81-7.86,18-12.14a71.39,71.39,0,0,1,8.37-5.12l3.77-5.9,8.73-12,1.28-7.09c4.58-17.31,5.11-18.47,5.5-19.32,1.23-2.68,1.64-3.57,22.82-19.16l-1.14-11.22,4.42-13.44,10.51-6.45,1.66-5.49,5.06-13.57,9.8-19.27,2.94-13,2.05-13.4,5.39-24.43-1.64-28.72-6.68-4.45-7.63-7-9.86-18.6,1.6-9.43-2.3-4.1L9019,7023.42l4.15-11.13L9010.42,6994l-.7-16.65-1.46-8.62-2.67-.3-7.76-3.51c-6.59-3.63-9.72-8.14-9.3-13.42a10.88,10.88,0,0,1,4.09-7.7c.23-.56.48-1.29.74-2.1l-2.88-3.83-2.19,8.06c-.94,6-1.9,13.43-1.86,15.27a33.18,33.18,0,0,1,.25,4.52,41.56,41.56,0,0,0,.53,7c1.2,7.36-1.41,11.64-3.81,13.94a10.75,10.75,0,0,1-.84.74c-1.89,5.73-3.67,11.43-4,12.85L8977,7014.7c-.73,6.67-6.59,9.72-14,13.58l-1.12.59a12.66,12.66,0,0,1-9,1.35l-13.8,2.94-18.17-13.26L8917,7012l-18.71-8.66,2.33-21.1,3.26-7.84c-1.84.15-3.89.29-6.21.41l-3.16.17-5.51-3.34c-.52.1-1,.21-1.39.31-.89,1-1.38,1.59-1.45,1.67l-12.32,13.58-12.58-3.51c-2.74,3.9-4.57,6.28-5.83,7.79a116.77,116.77,0,0,0-.69,12.63l-.27,2.28-6.47,27.78-13.38,9.55-5.73-3.27c-1.84-1-10.69-6.21-15.95-11.17l-.84.4-7.18,1.06-3,2.09c-1.56,2.63-4.31,7.23-5.76,9.51-.76,1.19-.92,1.73-1.61,4.39l-1.23,5.14c0,1-.07,2.62-.19,5.21s-.13,4.06-.13,5.2a22.32,22.32,0,0,1-1.8,9.63c-2.41,6.48-10.38,12.36-16.64,16.15l-1.89,1.15-7.8,1a11.18,11.18,0,0,1-.75,7.57c-.6,3.59-1.55,13.6-2.14,21.84l-.13,1.85-10.57,23.17-2.43,1.63c-3.55,2.37-21.48,14.34-26,16.83a45.84,45.84,0,0,1-9.69,3.67,44.09,44.09,0,0,0-5.69,1.91c-2.54,1.12-2.54,1.12-4.77,3.87l-.86,1.06a48.13,48.13,0,0,1-4.8,5c-1.52,3.38-4.92,7-10.41,12.27l-9.61,23.5c-2.46,5.15-5.12,10.83-6.28,13.47,0,1.64,0,4.25,0,8.54l10.33,12.5-3.58,22.65c3.26,7.89,6.9,16.41,7.81,18.05.47.69,2.25,3.37,5.52,16.62,1,2.7,3.26,9.19,3.37,14.25.3,13.85-1.37,19.89-3.13,22.91a38.3,38.3,0,0,0,0,4.41l.24,3.4-1.84,2.89c-1.8,2.82-3.7,6.12-4.84,8.35l7.72,5.49,4.82-4.25c1.3-2.57,3.68-7.21,5.21-9.85.42-.72.65-1.13.77-1.4a12.49,12.49,0,0,1,2.38-4c2.33-2.79,5.5-3.91,9.87-5.46l.93-.33c3.08-2,8.63-2.94,20-3.69l-.37-1.5,14.64-17.22,2.28-1c4-1.66,8.64-3.67,10.94-4.72,1.29-1.63,3.09-4.11,3.09-4.11l1.84-2.52,2.9-1h0c-.07,0,4-1.82,7.41-7.87,2.31-4,6.93-12.11,14.8-9.88l6.76-3.3,11.26-4.83a74.12,74.12,0,0,1,6-10.38c1.7-2.53,6.87-10.2,15.23-9.76a12.37,12.37,0,0,1,2.32.36l20.2-4.89,3.26,1.5c3.11,1.43,7,3.92,9,7.87.42.51,1,1.11,1.55,1.74,2.21,2.44,4.3,4.74,5.5,7.46.25.55.48,1,.69,1.38a25.8,25.8,0,0,1,1.69,3.79c.84,1,2.35,2.47,4.09,4.14.75-1.06,1.42-2.08,1.92-3l8.63-24.78,20.32,2.24,2.67,3.28c12.39,15.25,12.38,20.53,12.38,22.79a19.74,19.74,0,0,1-2.53,10c-.6,1.62-1.35,3.83-10.16,13.07-.31.58-.68,1.3-1,1.93,0,1-.12,2.7-.19,4.43-.13,3-.28,6.29-.39,7.86.07.56.26,1.5.47,2.44C8914.94,7325.53,8917.29,7327.15,8919.79,7328.79Zm-6.8-6.56c0,.2,0,.36,0,.47C8913,7322.57,8913,7322.41,8913,7322.23Zm-180.79,32.11c-.07.2-.14.38-.21.57C8732.06,7354.72,8732.14,7354.54,8732.2,7354.34Zm24.65-9.65v0Zm147.72-62.1-2.71,7.45c-.48.93-1,1.91-1.65,2.88,2.33-2.49,4.56-5,5.44-6.14.2-.47.43-.93.66-1.38C8905.91,7284.64,8905.3,7283.67,8904.58,7282.59Zm2.32,4Zm-1-.15Zm-28.13-4.63h0Zm-1.06-2.43Zm-20.71,3.81.06.13Zm-7-9.2,0,.08Zm-181.32,26.44.15.23Zm29.94-128.74,0,.14Zm64.29-70.94-.21.2Zm194.63-88.29s0,0,0,0Zm-4.94-1.42Zm51.52-49.68-.08,0Zm-92.68-2.16,5.6,2.32-3-6.82c-2,1-2.47,3.64-2.54,4.16C8910.44,6958.92,8910.43,6959,8910.42,6959.15ZM8840.07,6978l-.21.17Z" transform="translate(-4499.86 -2851.68)"/><path class="g" d="M8931.16,7374.84l22.68-9.32,9.21-12-6.88,32.92s-2.36,26.25-10.38,25.46-28.93,4.33-28.93,4.33-1.81,1.06.64-5.77,8-15,10.08-20.35S8931.16,7374.84,8931.16,7374.84Z" transform="translate(-4499.86 -2851.68)"/><path class="f" d="M8949.28,7421.81a13.83,13.83,0,0,1-4.5.3c-3.67-.36-15,1.59-24,3.72h0l-4.91,2.88-6-4.63c-6.33-5.25-3.45-13.3-2.06-17.17a97.56,97.56,0,0,1,6.48-13.37,78.67,78.67,0,0,0,3.71-7.26c1.21-3.1,2.49-9.64,3-13l.88-5.76,25.49-10.47,35.1-45.93-16.07,76.81c-.86,9.07-3.45,24.53-11.11,30.88A14.58,14.58,0,0,1,8949.28,7421.81Zm-16.4-19.34a88.19,88.19,0,0,1,9.72-1,70.18,70.18,0,0,0,3.29-16l.17-1.19,1-4.84-6.78,2.79a76.33,76.33,0,0,1-3.13,11.58A78.07,78.07,0,0,1,8932.88,7402.47Z" transform="translate(-4499.86 -2851.68)"/><path class="g" d="M9145.24,7316.76l-22.34,21.88s-2.41-4.42-15,13.66l-12.62,18.07-.24,2.16-1.24,11.22s10.06,1,11.19-1.57,7.66-11.81,8.76-14.13,3-6.63,3-6.63l12.09-3.75,15.85-7.34,6.88-17.12,4.74-17Z" transform="translate(-4499.86 -2851.68)"/><path class="f" d="M9105,7393.58a37.92,37.92,0,0,1-12.22.44l-10.37-1,2.91-26.36,14.13-20.23c7.89-11.3,13.68-16.81,19.41-18.19l22-21.55,29.28-1.48-9,31.9-8.4,20.91-20.83,9.55-7.68,2.39c-.43.93-.86,1.86-1.21,2.59a77.3,77.3,0,0,1-4.64,7.55c-1.33,2-3.56,5.43-4.06,6.42C9112.74,7390.12,9109.64,7392.48,9105,7393.58Zm33.75-56-8.07,7.91,6-2.78Z" transform="translate(-4499.86 -2851.68)"/><path class="a" d="M6933,6137.44l280.2-485.3a4707.57,4707.57,0,0,0-798.87,184.35,4701,4701,0,0,0,236.54,789.63Z" transform="translate(-4499.86 -2851.68)"/><path class="a" d="M8268.25,8420.48H7707.86A4707.57,4707.57,0,0,0,8267,9020.14a4701,4701,0,0,0,565.57-599.66Z" transform="translate(-4499.86 -2851.68)"/><path class="c" d="M4751.35,4742l166.75,94.38q-52.55,11.67-86.45,33.63a163.5,163.5,0,0,0-54,57.54q-37.23,65.78-15.35,131.94t94.17,107.08q67.32,38.1,135.16,21.71t104.21-80.63a163.39,163.39,0,0,0,21.52-75.94q1.39-40.37-16-91.64l167.13,94.59a419.25,419.25,0,0,1-14.52,87.22,350.13,350.13,0,0,1-32.33,77.64q-26,45.89-58.85,78.54a277.28,277.28,0,0,1-73.45,52.6q-77.57,38.92-160.05,35.65t-162.41-48.5q-64.25-36.37-105-87t-59.81-116.92q-18.41-62.93-10.43-124.32T4634.13,4867a350.22,350.22,0,0,1,49.92-67.69A420.2,420.2,0,0,1,4751.35,4742Z" transform="translate(-4499.86 -2851.68)"/><path class="c" d="M5283.44,5043.62l-360.08-577.5,138.35-170.7,639.83,232.33L5591.69,4663.3l-109.92-47.23-156.89,193.58,68.42,98.44Zm-32.08-342.2,109.85-135.54-206.13-82.78q-9.45-3.69-29.5-13.16T5074,4445.67q14.84,19.38,28.11,37.21t25,34.71Z" transform="translate(-4499.86 -2851.68)"/><path class="c" d="M5733.79,4507.67l-425.06-482.95,137.56-121.07q80.82-71.13,119.19-91.73t76.85-23.44q43.48-3.14,84.5,15.2t73.54,55.29q49.36,56.08,52.73,115.46t-39.24,117.38l302.92,78.79L5968,4301.53l-277.21-91.47,166.36,189ZM5633,4144.42l24.41-21.49q42.55-37.45,49.41-69.24t-20.44-62.8q-31.94-36.29-63.75-35.51t-75,38.81l-26.39,23.23Z" transform="translate(-4499.86 -2851.68)"/><path class="c" d="M6153.59,4148.58l-340.73-545.72,149.48-93.33q92.44-57.72,132.89-74.68t76-18.95q40.67-2.08,74.08,16.18t56.46,55.16q29.1,46.6,22.53,88.77t-49.53,88.69q60.94-31.83,116.44-16t93.43,76.62q27.23,43.61,29.49,88.31T6493.47,3898q-18.65,32.37-55.7,64.3t-130.24,90.12Zm-66.66-413.77,29.82-18.62q55.16-34.44,68.11-59.36t-5.68-54.74q-19.32-30.94-46.31-31.44t-82.54,34.17l-32.06,20Zm135,216.2,52.19-32.58q52.93-33,66.66-60t-5.59-57.9q-21.41-34.29-50-35.33t-83,32.94l-54.42,34Z" transform="translate(-4499.86 -2851.68)"/><path class="c" d="M7150.84,3306.33q24.92,64.81,22.89,130.56t-30.37,128a350.9,350.9,0,0,1-78.75,108.67,350.34,350.34,0,0,1-245.9,94.55,336.5,336.5,0,0,1-129.83-28.47q-63.54-26.88-109.46-74.68t-70.52-111.78q-24.76-64.39-22.61-130.44t31.31-128.57A336.48,336.48,0,0,1,6594.93,3186a352,352,0,0,1,246.52-94.78,340.33,340.33,0,0,1,130.65,28.16,330.68,330.68,0,0,1,108.07,74.74Q7126.08,3241.94,7150.84,3306.33ZM6897.9,3606q68.08-26.18,93.35-93.33t-4.07-143.45q-29-75.46-93.54-108.58t-131.38-7.4q-68.09,26.18-93.27,93.54t4,143.24q29.65,77.12,92.62,109.87T6897.9,3606Z" transform="translate(-4499.86 -2851.68)"/><path class="c" d="M7342.29,3592.58l-109.12-634,166.74-28.7,295.62,284.9q8.64,8.78,29.63,36.15t47.2,65.68q-12-38.51-19.65-68.86t-11.77-54.16l-53.89-313.12,165.87-28.55,109.12,634-165.87,28.55-295.84-286.2q-9.08-8.69-30.07-36.07t-46.62-64.88q12.06,39,19.73,69.29t11.77,54.16L7509,3563.88Z" transform="translate(-4499.86 -2851.68)"/><path class="c" d="M9072.67,3583.91,8910.36,3561l1.39-280.73q.19-29.7,2-65.85t5.1-78.72q-11.8,39.61-38.16,97.58-5.7,12.08-8.29,17.92l-128.66,286.31-115.75-16.31-44.53-310.72q-.89-6.34-2.59-19.45-9.75-63.05-9.77-103.89-7.7,35.76-16.18,70.72t-18.23,69.55l-76.24,270.18L8299,3474.89l188.11-623.21L8659,2875.9,8708.83,3218q.38,3.61,1.89,11.8,7.29,45.86,6.36,77.67a308.77,308.77,0,0,1,11.83-36.72q7.69-20,20.08-48l143.21-314L9064.52,2933Z" transform="translate(-4499.86 -2851.68)"/><path class="c" d="M9061.34,3587.31l426.33-530.47,206.79,74.27-8.2,680.65-164.19-59,8.31-119.35-234.5-84.23-70.35,97.07Zm312.45-143.19,164.19,59,10.13-221.9q.37-10.13,2.69-32.19t5.9-56.72q-13.4,20.4-25.85,38.81t-24.51,35.09Z" transform="translate(-4499.86 -2851.68)"/><path class="c" d="M9715.79,3827.67l330.31-552.09,145.19,86.86,38.65,408.73q.83,12.29-1.07,46.73t-7,80.57q16-37,30-65t26.35-48.76L10441.32,3512l144.43,86.41-330.31,552.09L10111,4064.12l-38-409.86q-1.23-12.51.69-47t6.91-79.6q-16.23,37.41-30.18,65.42t-26.35,48.76L9861,3914.54Z" transform="translate(-4499.86 -2851.68)"/><path class="c" d="M10340.75,4218.54l432.93-475.9,99.15,90.2q110.85,100.84,147.38,153.09t49.14,108.27q16.49,72.63-4.9,143.18t-78.77,133.6q-57.37,63.07-125.58,91T10718,4480.37q-56.35-7.29-109.87-37.27t-146.49-114.55l-21.78-19.81Zm225.4,10.19,21.78,19.81q76.39,69.49,140,70.06t125.75-67.7q62.1-68.26,56-132.06t-82.52-133.29l-21.78-19.81Z" transform="translate(-4499.86 -2851.68)"/><path class="c" d="M10766.37,4601.29l645.79-214.75L11545.69,4561l-375.79,567.58-106-138.55,71.67-95.8-151.43-197.88-111.73,43.45Zm340.19,49,106,138.55,128.77-181q5.8-8.32,19.7-25.59t35.69-44.47q-22.32,9.88-42.76,18.61t-39.61,16.21Z" transform="translate(-4499.86 -2851.68)"/><path class="c" d="M11180.32,5167.65l565.44-306.91,83.64,154.1-433.35,235.21,104,191.57-132.09,71.7Z" transform="translate(-4499.86 -2851.68)"/><path class="h" d="M4511.18,8401.43c-13.86-35.17-11.72-61.65-10.25-71.42,7.23-8.65,34.81-25.81,54.16-34.4,3.76.94,7.07,6.89,5.22,9.55-18.88,14.69-53.14,48-34,96.59,13.86,35.17,43.65,43.26,68.77,33.36,18.42-7.26,37.45-19.11,45.08-57.43l10.28-50c5.57-26.38,19.86-60.06,54.19-73.59,39.77-15.67,84.22,2.6,105.67,57,5.11,13,8.54,29,9.9,41.08a60.43,60.43,0,0,0,3.26,15.64c-8.56,7.73-30.52,20.74-48.11,27.66-3.17-.68-7.07-6.89-5.38-10,18-13.36,40.71-35.39,24.87-75.58-16.17-41-46.85-39.1-66.1-31.51-24.28,9.57-33.95,36.59-37.47,55.88l-7.73,41.74c-5.93,32.81-20,68.34-59.76,84C4577.72,8478.23,4532.63,8455.86,4511.18,8401.43Z" transform="translate(-4499.86 -2851.68)"/><path class="h" d="M4849.65,8688.66c25.11-12.15,71.3-35.51,80.12-48.28,3.49-5.19,2.8-13.85-1.3-24.37l-4.09-10.52c1.66-3.8,7.32-5.54,10.11-3.9,6.64,15.78,13.49,31,21.13,46.77,8.23,17,13.93,27.75,21.8,41.95-.46,4.22-5.92,6.37-9.33,5.52l-5.51-9.33c-5.71-9.73-13.08-15.67-19.52-15.55-16.11.8-62.69,23.34-85.38,34.32l-45.77,22.15c-35.24,17.05-75.25,29.42-110.53,18.5-27.47-8.2-52.51-33.08-67-63.06-13.53-28-21.79-58.45-14.38-86.53,7.43-30.09,32.1-54.53,80.3-77.86l95.59-46.26c42.13-20.39,48.62-24.53,39.28-49l-4.09-10.52c.44-3.21,7.72-5.74,10.11-3.9,9,20.65,15.25,34.61,23.09,50.82,8,16.61,14.91,29.78,25.33,49.24,0,3-6.53,7.16-9.33,5.51l-5.52-9.33c-13.4-22.51-20.67-20-62.8.4l-87.49,42.34c-65.21,31.56-98.35,72.59-68.36,134.57,28.42,58.73,85.38,58.67,147,28.87Z" transform="translate(-4499.86 -2851.68)"/><path class="h" d="M4764.62,8928.34c-19-32.69-20.83-59.19-20.84-69.07,5.85-9.64,30.55-30.74,48.39-42.13,3.85.37,8,5.75,6.59,8.66-16.46,17.36-45.34,55.45-19.13,100.6,19,32.69,49.64,36.22,73,22.67,17.12-9.94,34.16-24.51,36-63.54l2.67-51c1.55-26.92,10.63-62.36,42.54-80.89,37-21.46,83.66-10.05,113,40.54,7,12.07,12.8,27.43,15.95,39.13a60.5,60.5,0,0,0,5.57,15c-7.31,8.92-27.07,25.08-43.42,34.57-3.24-.2-8-5.75-6.81-9.05,15.74-15.9,34.94-41.09,13.26-78.46-22.14-38.14-52.18-31.63-70.08-21.24-22.57,13.1-28.08,41.27-28.67,60.87l-1.39,42.43c-.95,33.33-9.51,70.56-46.49,92C4841.93,8994.29,4794,8978.93,4764.62,8928.34Z" transform="translate(-4499.86 -2851.68)"/><path class="h" d="M4985.39,9139c-39.12,26.5-44.2,31-31.43,53.9l7,12.68c0,3.24-7.19,7-9.82,5.57-13.64-21.74-21.85-34.66-31.95-49.56s-19.3-27.69-36.2-51c-.4-3,5.43-8,9.31-6.31l10.2,12.65c16.25,20,23.1,18.05,62.22-8.45l166.53-112.82c11.55-7.83,11.92-8.08,4.35-19.25l-13.88-20.49c-10.85-16-25.48-36-40.36-39.51-14.25-3.39-25-1.56-37.06.65-4.25-1.47-5.93-7.94-4-11.45,20.8-5.4,48.43-16,65.1-23.45,1.5.61,5.16,5.2,4.8,7.08-10.41,10.31-1.71,22.35,9.9,39.49l102.22,150.88c13.63,20.12,16.65,23,30.12,22,2,1.36,4.41,5.71,3.42,7.46-18.05,6.25-50,24.08-60.41,32.78-4,.53-8.28-5.81-7.31-9.18,8.56-7.43,20.57-19.37,20.89-27.74.53-12.86-6.08-29-20-49.53l-17.92-26.45c-7.57-11.18-7.69-10.55-20-2.22Z" transform="translate(-4499.86 -2851.68)"/><path class="h" d="M5189.1,9352.26c5.85-8.58,5.8-10.83-2.52-21.46l-41.91-53.49c-6.94-8.86-9.67-10.15-19-6.8l-46.91,16.74c-20.1,7.18-31.61,12.19-35.51,15.24-4.25,3.33-5,6.77,1,15.82l8.1,12.52c.17,3.87-5.5,8.31-9.41,6.23-6.51-9.77-15.11-20.75-27.8-37.67-9.16-11.69-19.86-23.89-27.71-33.17-.25-3.23,4.86-8.38,8.3-7.65l10.22,10.86c7.37,7.95,17.37,12.69,34,7.66,21.29-6.39,52.09-14.51,103.42-30.72l123.95-38.8c16.64-5,25-8.18,29.87-13.68,9.14,6.56,20.23,7.58,27.89,7.88,1.67,2.13,2.9,5.16,1,7.81-12,16.82-23.83,35.25-35.26,52.77l-104.38,160.09c-22.42,34.14-24.12,42.91-14,59.53l6.43,10.4c.17,3.87-6.05,7.6-8.85,6.94-10.67-15.08-20-27.75-32.52-43.69-13.32-17-24.58-29.91-33-39.91-.8-3.94,4.59-8.74,8.3-7.65l9.11,9.44c6.54,6.88,12.55,10.18,16.09,7.4,3.9-3.05,8.89-9.82,15.17-19.31Zm-23.42-94.84c-10.37,3.55-10.44,4.18-2.67,14.1l34.13,43.57c8,10.27,10,9.87,17.09-.81l42.75-64.36c6.28-9.49,13.35-20.18,15.93-25.63l-.56-.71c-2.6.33-13.88,3.44-27.56,7.87Z" transform="translate(-4499.86 -2851.68)"/><path class="h" d="M5384.64,9392.29c35.81-31.51,41-37.24,25.11-58.66l-6.75-9c-.43-3.22,6.24-7.89,9-6.76,14.19,17.49,24,29.27,36.44,43.46,11.89,13.51,22.33,24.71,37.87,41,.77,2.92-4.72,8.95-7.85,8.11l-8.11-7.85c-19.23-18.45-25.56-14.07-61.38,17.44l-120.28,105.82c-35.81,31.51-39.95,36.34-24.78,58.36l6.42,9.34c.43,3.22-6.24,7.89-9,6.75-14.19-17.49-24-29.27-35.84-42.79-12.48-14.19-22.93-25.38-38.47-41.68-.77-2.92,4-8.35,7.85-8.11l8.44,7.55c19.9,17.85,25.23,14.37,61-17.14Z" transform="translate(-4499.86 -2851.68)"/><path class="h" d="M5548.21,9782.81c-9.52,9.58-47.26,47.56-54.55,56.81-2.54,1.28-6,1-9.55-2.51,1.56-9.23,3.41-29.6,7-88.8l9.68-157.86c1.21-18.46,5.52-66.2,5.79-79.89l-.64-.63c-5.08,2.56-12.7,9.59-22.21,19.16l-69.15,69.58c-14.91,15-55.82,56.81-59.91,71.78-1.57,5.42,2.91,13.67,10.25,22.24l8.94,10.79c-.62,4.46-4.75,8-8.57,7.35-13.73-14.91-24.58-26.33-36.39-38.07-13.41-13.32-22.34-21.57-34.15-32-.65-3.82,3.47-8.6,7.29-8.62l9.57,7.61c8.29,6.34,15.3,9.5,20.39,7.57,15.89-7.05,54.27-46.31,69.49-61.63l91.67-92.25c8.88-8.94,15.22-16,15.82-30,0-8.91-5.47-18.76-12.18-27.33l-4.79-6c0-3.82,4.75-8.61,8.57-7.35,12.46,14.28,29.37,31.09,35.12,36.8a145.39,145.39,0,0,0,15.63,13.63c-9.79,22.62-14,102.18-15.2,124.46l-3.61,65.56c-2.4,46.46-4.52,79.88-4.74,110.11l.64.63c2.86-.33,7.94-5.43,14.6-12.14l67.88-68.31c14.91-15,55.82-56.82,59.27-72.42.94-4.78-2.26-11.77-13.45-26l-4.79-6c-.33-4.14,5.06-8.92,8.57-7.34,14,15.23,24.58,26.33,36.71,38.39,13.73,13.64,22.34,21.57,33.83,31.71,1,4.13-3.47,8.6-7.29,8.61l-5.1-3.8c-11.8-8.55-20.72-12.34-24.54-11.06-16.85,6.1-55.54,46.31-70.13,61Z" transform="translate(-4499.86 -2851.68)"/><path class="h" d="M5752.08,9921.58c3.94-9.61,3.43-11.8-6.92-20.47l-52.09-43.63c-8.62-7.22-11.56-7.92-20-2.7l-42.41,26.11c-18.18,11.19-28.39,18.48-31.57,22.28-3.47,4.14-3.48,7.66,4.23,15.28l10.52,10.57c1,3.75-3.65,9.27-7.91,8-8.39-8.2-19.09-17.16-35-31.08-11.38-9.54-24.38-19.25-34-26.7-.91-3.11,3-9.21,6.53-9.2l12.25,8.5c8.86,6.24,19.63,8.81,34.86.43,19.5-10.67,47.94-25,94.79-51.5l113.2-63.67c15.23-8.37,22.79-13.2,26.38-19.58,10.3,4.52,21.37,3.22,28.92,1.92,2.07,1.73,3.91,4.45,2.57,7.44-8.23,18.94-16,39.43-23.54,58.94l-68.89,178.27c-14.84,38-14.69,47-1.3,61.13l8.45,8.84c1,3.75-4.34,8.69-7.23,8.62-13.57-12.54-25.35-23-40.87-36-16.56-13.87-30.25-24.16-40.54-32.19-1.6-3.69,2.67-9.5,6.53-9.2l10.87,7.34c7.82,5.38,14.39,7.35,17.28,3.9,3.18-3.79,6.65-11.45,10.83-22Zm-42.59-87.91c-9.41,5.62-9.35,6.26.31,14.35l42.43,35.54c10,8.38,11.85,7.58,16.55-4.34l28.47-71.83c4.17-10.59,8.87-22.51,10.27-28.38l-.69-.58c-2.48.86-12.86,6.25-25.33,13.42Z" transform="translate(-4499.86 -2851.68)"/><path class="h" d="M5956.73,9912.43c19.42-27.05,22.94-35,7.54-48.32l-10.91-9.49c-1.35-4.29,3-9.51,6.92-8.88,21.05,12.34,46.7,29.08,80.7,53.48,23,16.53,43.66,34.1,54.07,54.31,10.21,19,11.78,42.24-5,65.64-18.89,26.32-44,28.83-73.23,23.33-2.62,3.66-.49,6.85,3,10.47,17.12,17.82,33.25,57.09,5.17,96.21-30.43,42.41-82.34,48.36-148.15,1.14-10.6-7.61-27.73-21.56-43.08-32.58-16.09-11.54-29-19.73-42.83-29.07-1.41-2.67,2.06-9,5.83-9.67l7.37,3.63c21.74,10.61,25.35,7.12,52.9-31.27Zm-65.79,155c-9.44,13.16-22.1,32.33-20.92,45.36.91,13.39,10.57,23.09,21.54,31,32.54,23.35,67.89,26.57,94.13-10,20.73-28.88,30.24-73-27.89-114.73-19.74-14.17-22.78-13-28-5.71Zm60.87-84.82c-7.35,10.24-7.51,11.23,11.66,23.88,38.34,25.3,66.32,28.76,91-5.6,25.71-35.83,8.73-68.51-19.05-88.45-8-5.77-14.05-9-18.39-9.87-4.44-1.53-7.22-.75-11.94,5.83Z" transform="translate(-4499.86 -2851.68)"/><path class="h" d="M6173.12,10073.79c25.54-40.29,28.87-47.23,7.65-63.34l-9-6.78c-1.32-3,3.78-9.32,6.78-9,18.52,12.81,31.2,21.38,47.17,31.5,15.2,9.64,28.37,17.45,47.85,28.74,1.56,2.58-2,9.91-5.26,10l-10-5.26c-23.63-12.31-28.49-6.33-54,34l-85.77,135.31c-25.54,40.29-28.15,46.09-7.41,63l8.78,7.16c1.32,3-3.78,9.33-6.78,9-18.52-12.81-31.2-21.38-46.41-31-16-10.12-29.13-17.93-48.61-29.21-1.56-2.59,1.54-9.15,5.26-10l10.22,4.88c24.11,11.55,28.24,6.71,53.78-33.57Z" transform="translate(-4499.86 -2851.68)"/><path class="h" d="M6301.14,10151.79c23.09-41.22,25.82-47.94,2.19-63.76l-9.38-6.28c-1.48-2.89,3.27-9.52,6.28-9.37,21.55,13.1,34.67,21,50.38,29.77,15.31,8.58,28.88,15.66,48.95,25.87,1.7,2.5-1.48,10-4.71,10.25l-9.86-4.49c-24.26-11-28.57-5.17-51.66,36.05l-76.53,136.63c-13.85,24.73-18.39,35.6-15.51,47,1.9,6.74,6.72,15.63,37.74,33,33.37,18.69,42.5,21.74,50.76,21.73,10.49-.31,28.62-8.73,47.68-24.35,3.46-.64,10,5.1,8.5,7.85-2.42,4.32-35.84,38.21-47.28,45.73-19.58-12-56.66-33.29-97.1-55.94l-36.12-20.23c-16.49-9.24-29.27-15.88-51.7-27.41-1.7-2.5,1-9.22,4.71-10.25l12.44,5.42c24.09,10.4,28,5.34,51-35.88Z" transform="translate(-4499.86 -2851.68)"/><path class="h" d="M6518,10269.27c21-42.82,23.58-50.08.74-63.8l-9.7-5.77c-1.63-2.81,2.75-9.68,5.77-9.7,19.8,10.72,33.34,17.87,50.3,26.2,16.16,7.93,30.09,14.27,50.69,23.38,1.83,2.4-.93,10.07-4.15,10.5l-10.5-4.15c-24.83-9.68-29-3.21-50,39.61l-70.6,143.81c-21,42.82-23,48.87-.54,63.4l9.5,6.17c1.63,2.81-2.75,9.68-5.76,9.7-19.8-10.72-33.34-17.87-49.5-25.8-17-8.33-30.9-14.67-51.49-23.77-1.83-2.4.54-9.26,4.15-10.5l10.69,3.75c25.22,8.87,28.81,3.61,49.83-39.21Z" transform="translate(-4499.86 -2851.68)"/><path class="h" d="M6690.49,10524.42c-18.21,43.6-20,50.17,3.23,62.31l12.77,6.8c1.8,2.7-2.15,9.83-5.17,10-23.32-10.72-37.27-17-53.88-24s-31.32-12.59-58.24-22.86c-2-2.29.15-9.69,4.34-10.38l15.47,5c24.54,7.81,29.21,2.45,47.42-41.15l77.53-185.61c5.38-12.87,5.55-13.29-6.91-18.49l-22.84-9.54c-17.85-7.46-41-16.17-55.41-11-13.78,5-21.75,12.37-30.65,20.85-4.36,1.1-9.31-3.4-9.58-7.42,14.45-15.91,31.78-39.88,41.62-55.28,1.59-.31,7.16,1.53,7.89,3.29-3.06,14.33,10.82,19.64,29.92,27.61l168.17,70.24c22.42,9.37,26.51,10.1,37.25,1.9,2.42,0,6.82,2.36,7,4.37-11.68,15.12-28.63,47.54-32.59,60.52-3,2.63-10.11-.32-11.14-3.68,3.09-10.9,6.6-27.48,2.28-34.65-6.6-11-21-21-43.83-30.5l-29.48-12.31c-12.46-5.2-12.21-4.61-17.94,9.09Z" transform="translate(-4499.86 -2851.68)"/><path class="h" d="M6969.65,10626.16c-15.12,45.71-14.82,53.4,7.69,62.74l15.81,6.65c1.72,3.41-1.4,10-4.39,10.4-26.21-9.62-40.59-14.85-57.68-20.5-17.94-5.94-33.46-10.59-56.39-17.23-2.14-2.13-.73-9.25,2.68-11l13.67,3.1c25.63,5.63,28.46-.07,43.58-45.78l7.21-21.79c7.77-23.5,8.33-29.48,3.85-57.5l-17.91-114.94c-5.2-33-10.9-37.26-23-43.63l-11.26-6.09c-1.57-3.84.83-9.68,4.39-10.4,13.39,5.38,28.63,10.89,49.14,17.67,19.65,6.5,35.17,11.16,46.14,13.84,3.42,2.55,1.16,9.39-2.25,11.11l-5.84-1c-15.66-2.81-19.36-1.66-20.49,1.76-1.41,4.27,1.64,32.3,2.36,37.28,5.35,36.84,10,75.83,16.9,110.82,20.73-18.26,43-38.38,64-58.92,19.31-18.26,44.73-42.08,46.42-47.21.85-2.56-5.85-8.1-15.68-12.77l-7.41-3.4c-2-4,.4-9.82,4.39-10.4,15.1,5.94,27.35,10.47,40.59,14.85s25.35,7.91,40.16,11.86c2.71,3.27,1.16,9.39-2.68,11l-12.67-1.82c-23.49-3.5-45.21,19.17-78.72,48.85l-42.32,37.67c-29.54,26.25-32.09,29.67-43,62.57Z" transform="translate(-4499.86 -2851.68)"/><path class="h" d="M7308.57,10517.26c37.52-18.14,81.09-21.62,126.84-11.75,23.75,5.13,56.14,17.18,75.58,27.37,5,2.46,7.88,4,11.94,4.42-1.74,10.21-5.53,38.4-7.8,66-2.86,2.6-9.56,1.62-12.07-1.69-.14-31.33-12.53-69.92-76.31-83.69-67.3-14.53-133.69,15.79-153.35,106.84-19.94,92.37,27.54,156,99.68,171.6,56.74,12.25,89.79-19.29,105.51-43.05,3.55-1.54,10,.77,11.06,4.23-8,22.21-25.72,48.77-34.12,55.7a90.61,90.61,0,0,0-16.34,1.08c-10.44,1.43-43.53,1.19-71.68-4.89-39.59-8.55-75.71-24.63-103.16-53.12-30-31.79-48.6-77.71-36.34-134.45C7238.53,10573,7269.54,10536,7308.57,10517.26Z" transform="translate(-4499.86 -2851.68)"/><path class="h" d="M7538.94,10689.3c11-89.32,86.47-149.37,178.47-138,103.17,12.75,145.76,93.73,136,172.34-11.15,90.22-88,147.37-174.23,136.72C7580.08,10848.09,7529,10769.69,7538.94,10689.3Zm268.15,42.66c9.11-73.69-13.67-157.21-99-167.76-46.45-5.74-110.66,18.52-122.74,116.33-8.17,66.1,13.39,155.82,101.37,166.69C7740.34,10853.84,7796.22,10819.94,7807.09,10732Z" transform="translate(-4499.86 -2851.68)"/><path class="h" d="M8175,10808.07c-.38,13.49-1.89,67-.87,78.76-1,2.67-3.74,4.85-8.69,4.71-5.18-7.8-17.78-23.91-55.66-69.55l-101-121.7c-11.75-14.29-41.3-52-50.47-62.2l-.9,0c-2,5.35-2.69,15.68-3.07,29.17l-2.77,98.06c-.6,21.14-1.8,79.63,5.47,93.34,2.56,5,11.48,8,22.7,9.19l13.91,1.74c2.6,3.67,2,9.06-1.22,11.22-20.22-1.47-35.95-2.36-52.59-2.83-18.89-.53-31-.43-46.82,0-3.09-2.34-3.36-8.65-.58-11.27l12.18-1c10.38-1.06,17.66-3.55,20-8.44,6.75-16,7.85-70.91,8.46-92.5l3.67-130c.36-12.59.17-22.05-9-32.67-6.12-6.48-16.83-9.93-27.58-11.58l-7.62-1.12c-2.62-2.78-2.43-9.52,1.21-11.22,18.85,1.88,42.7,2.56,50.79,2.78a145.43,145.43,0,0,0,20.73-.76c8.35,23.19,59.75,84.07,74.13,101.13l42.25,50.26c30.06,35.51,51.39,61.32,71.92,83.51l.9,0c1.86-2.2,2.07-9.39,2.33-18.84l2.72-96.26c.6-21.14,1.8-79.63-6.37-93.37-2.58-4.12-9.71-7-27.63-9.78l-7.62-1.12c-3.07-2.79-2.42-10,1.22-11.22,20.67,1.48,35.95,2.37,53,2.85,19.34.54,31,.42,46.37,0,3.53,2.35,3.36,8.65.58,11.27l-6.32.72c-14.46,1.84-23.55,5.19-25.46,8.74-8.1,16-8.78,71.78-9.36,92.47Z" transform="translate(-4499.86 -2851.68)"/><path class="h" d="M8341,10885.68c-37.76,1.83-62.14-8.71-70.92-13.24-5.87-9.63-13.26-41.26-15.18-62.34,2.1-3.25,8.79-4.48,10.72-1.87,7.85,22.6,28.41,65.75,80.55,63.23,37.76-1.83,55-27.44,53.68-54.41-1-19.78-6.07-41.61-39.9-61.14l-44-25.8c-23.19-13.75-50.5-38.1-52.28-75-2.06-42.7,29.52-78.92,88-81.74,13.93-.67,30.25,1.24,42.08,3.82a60.49,60.49,0,0,0,15.86,1.94c4.57,10.59,9.83,35.57,10.74,54.44-1.67,2.78-8.79,4.48-11.17,1.89-6.89-21.29-20.44-49.92-63.58-47.83-44,2.13-52.08,31.8-51.08,52.48,1.26,26.07,23.75,43.9,40.88,53.44l37,20.73c29.16,16.16,58.29,40.88,60.36,83.58C8435.12,10847.34,8399.44,10882.85,8341,10885.68Z" transform="translate(-4499.86 -2851.68)"/><path class="h" d="M8721.72,10657.65c-3.42-27.69-10.65-78.94-19.9-91.4-3.79-5-12.21-7.11-23.49-6.62l-11.28.48c-3.07-2.8-2.89-8.71-.43-10.83,17.08-1.2,33.66-2.79,51.08-4.94,18.76-2.31,30.76-4.25,46.73-7.13,3.85,1.79,4.12,7.65,2.22,10.61L8756,10550c-11.05,2.27-19,7.34-21,13.47-4.43,15.51,1.91,66.87,5,91.88l6.23,50.47c4.79,38.85,3.61,80.71-18.09,110.6-16.61,23.36-48.23,39.05-81.28,43.13-30.82,3.8-62.35,1.8-86.55-14.26-26.1-16.73-41.29-48-47.84-101.1l-13-105.4c-5.73-46.45-7.56-53.93-33.74-53l-11.28.48c-2.9-1.46-2.94-9.16-.43-10.83,22.44-1.86,37.68-3.29,55.54-5.5,18.31-2.26,33-4.53,54.77-8.12,2.84,1,4.67,8.49,2.21,10.61l-10.61,2.22c-25.63,5.43-25.58,13.13-19.85,59.58l11.91,96.47c8.88,71.91,37,116.49,105.38,108.06,64.76-8,83-61.94,74.66-129.82Z" transform="translate(-4499.86 -2851.68)"/><path class="h" d="M8832.26,10592.06c-9.46-46.29-11.78-53.17-40-49.7l-11.2,1.37c-3-1.22-3.75-9.34-1.37-11.2,24.87-4.16,40-6.78,57.59-10.38,17.2-3.51,32.1-7,54-12.4,2.92.78,5.42,8.54,3.13,10.84l-10.4,3c-25.56,7.52-25,14.75-15.55,61l31.34,153.43c5.67,27.78,9.34,39,19,45.73,5.84,3.86,15.3,7.44,50.13.33,37.48-7.65,46.38-11.31,52.62-16.72,7.74-7.09,16-25.31,20.19-49.59,2.2-2.75,10.93-2.69,11.56.39,1,4.85-2.17,52.34-5.91,65.51-22.67,3.71-64.64,11.82-110.05,21.1l-40.56,8.28c-18.52,3.78-32.54,7.1-57,13-2.92-.78-5.24-7.66-3.13-10.84l13-4c25-7.87,24.65-14.22,15.2-60.52Z" transform="translate(-4499.86 -2851.68)"/><path class="h" d="M9175.7,10678.82c12.28,45.63,14.9,51.91,40.69,47.3l14.26-2.44c3.08,1,4.31,9.09,2.06,11.1-25,5.8-39.89,9.34-57.27,14s-32.47,9.21-60,17.56c-3-.6-5.82-7.75-2.92-10.86l15.29-5.51c24.18-8.84,24.6-15.94,12.32-61.57l-52.28-194.23c-3.63-13.47-3.74-13.91-16.78-10.4l-23.9,6.43c-18.68,5-42.35,12.33-50.52,25.25-7.86,12.37-9.63,23.1-11.48,35.25-2.77,3.54-9.44,3-12.12,0,1.69-21.42.72-51-.92-69.19,1.07-1.22,6.6-3.17,8.25-2.22,6.35,13.2,20.57,8.91,40.56,3.53l176-47.37c23.46-6.31,27.14-8.24,30.62-21.29,1.94-1.45,6.84-2.31,8.17-.8,0,19.1,6.45,55.12,11.26,67.8-.8,3.94-8.19,5.93-11.06,3.91-4.23-10.51-11.6-25.77-19.4-28.8-12-4.7-29.43-3.73-53.33,2.71l-30.85,8.31c-13,3.51-12.48,3.83-8.62,18.17Z" transform="translate(-4499.86 -2851.68)"/><path class="h" d="M9443.79,10555.67c-6.21-8.33-8.36-9-21.12-4.6l-64.21,22.22c-10.63,3.68-12.74,5.84-12.63,15.8l.57,49.8c.24,21.34,1.24,33.86,2.86,38.53,1.77,5.1,4.78,6.92,15.28,4.24l14.48-3.58c3.71,1.1,6.07,7.9,2.83,10.92-11.35,3-24.54,7.54-44.67,14-14,4.86-29,11-40.38,15.4-3.14-.82-6.35-7.33-4.53-10.34l13.59-6.13c9.91-4.38,17.65-12.3,18.3-29.67.88-22.21,3.23-54,4.61-107.78l3.64-129.83c.66-17.37.41-26.33-3.22-32.7,9.18-6.51,13.76-16.67,16.52-23.81,2.55-.88,5.82-1.06,7.7,1.62,12,16.8,25.58,34,38.43,50.51l117.42,150.79c25,32.31,32.72,36.77,51.75,32.57l11.92-2.7c3.71,1.1,5.22,8.19,3.68,10.63-17.73,5.18-32.76,9.91-51.9,16.53-20.41,7.06-36.28,13.51-48.46,18.2-4-.52-6.77-7.18-4.53-10.34l11.89-5.54c8.64-3.94,13.71-8.55,12.23-12.81-1.62-4.68-6.39-11.6-13.33-20.62Zm-97.3-8.71c0,11,.56,11.24,12.46,7.12l52.31-18.1c12.33-4.27,12.59-6.26,4.79-16.42l-47-61.37c-6.93-9-14.73-19.19-19.05-23.41l-.85.29c-.54,2.57-1.26,14.25-1.52,28.62Z" transform="translate(-4499.86 -2851.68)"/><path class="h" d="M9828.24,10426.18c5.49,12.33,27.27,61.25,33.27,71.39.28,2.83-1.28,6-5.8,8-8-4.79-26.37-13.87-80.26-38.64l-143.7-66.06c-16.77-7.8-59.74-29.06-72.4-34.26l-.82.37c.55,5.67,4.35,15.3,9.84,27.64l39.9,89.62c8.6,19.32,32.81,72.58,45.29,81.8,4.48,3.42,13.8,2.23,24.44-1.52l13.29-4.44c3.93,2.19,5.72,7.31,3.75,10.64-18.87,7.41-33.44,13.41-48.65,20.18-17.26,7.69-28.18,13-42.2,20.27-3.79-.77-6.77-6.35-5.4-9.91l10.55-6.17c8.91-5.44,14.38-10.84,14.43-16.28-.83-17.36-23.58-67.33-32.36-87.06l-52.9-118.8c-5.12-11.51-9.38-20-22.22-25.57-8.32-3.19-19.46-1.68-29.88,1.48l-7.36,2.29c-3.56-1.37-6.31-7.54-3.75-10.64,17.81-6.45,39.6-16.15,47-19.45a145.14,145.14,0,0,0,18.36-9.66c17.56,17.3,90.22,50,110.56,59.14l59.83,27.05c42.46,19,72.85,33.08,101,44.21l.82-.37c.73-2.79-2.2-9.36-6-18l-39.17-88c-8.6-19.32-32.81-72.58-46.11-81.43-4.11-2.6-11.79-2.14-29.15,3.13l-7.35,2.29c-4-1.19-6.49-7.95-3.75-10.64,19.28-7.6,33.44-13.41,49.06-20.37,17.68-7.87,28.18-13,41.79-20.09,4.2.59,6.77,6.35,5.4,9.91l-5.39,3.38c-12.24,7.91-19,14.86-19.18,18.88-.4,17.91,23.12,68.52,31.54,87.43Z" transform="translate(-4499.86 -2851.68)"/><path class="h" d="M9859.66,10196.63c16.19-38.41,46.59-69.8,87.46-92.61,21.22-11.84,53.5-24.19,74.82-29.38,5.37-1.45,8.56-2.2,11.88-4.57,5.44,8.82,21.22,32.48,37.74,54.69-.43,3.85-6.1,7.53-10.17,6.71-20.81-23.43-55.59-44.21-112.57-12.42-60.12,33.55-89.93,100.18-44.54,181.52,46.05,82.52,123.75,98.94,188.2,63,50.69-28.29,54.67-73.8,50.77-102,1.65-3.5,8-6,11.09-4.13,8.65,22,12.91,53.6,11.18,64.36a90.73,90.73,0,0,0-11.56,11.61c-6.89,8-31.89,29.65-57,43.69-35.37,19.74-73.11,31.52-112.54,28.28-43.5-4.07-87.82-26.23-116.11-76.92C9843.92,10284.78,9842.73,10236.48,9859.66,10196.63Z" transform="translate(-4499.86 -2851.68)"/><path class="h" d="M10296.08,10164.35c26.63,40.12,32.86,44.62,54.1,32.68l15-8.33c3.74.76,7,7.25,5.47,9.87-23.74,14.68-36.74,22.77-51.74,32.72-15.75,10.45-29,19.79-48.37,33.72-3,.37-7.73-5.13-7-8.88l10.88-8.84c20.25-16.68,17.52-22.43-9.11-62.55l-12.69-19.12c-13.69-20.62-18-24.75-42.86-38.53l-101.48-56.87c-29.17-16.28-36-14.43-48.53-8.83l-11.74,5.09c-4-1.13-7.1-6.63-5.47-9.87,12.5-7.21,26.24-15.8,44.24-27.74,17.25-11.45,30.5-20.78,39.37-27.75,4.12-1.12,8.1,4.88,7.35,8.63l-4.38,4c-11.88,10.59-13.26,14.2-11.27,17.2,2.49,3.75,26.42,18.65,30.79,21.16,32.29,18.54,65.82,38.95,97.61,55.11-1.57-27.58-3.63-57.54-6.81-86.76-2.44-26.46-5.49-61.17-8.48-65.67-1.49-2.25-10-.39-19.73,4.45L10204,9963c-4.37-.88-7.48-6.38-5.47-9.87,14-8.21,25.12-15,36.74-22.76s21.87-15.06,34.12-24.27c4.24-.12,8.1,4.88,7,8.88l-9.25,8.84c-17.26,16.32-12.83,47.4-10.17,92.09l3.5,56.55c2.42,39.44,3.53,43.57,22.69,72.43Z" transform="translate(-4499.86 -2851.68)"/><path class="h" d="M10610.56,10026.55c-29.4,23.76-55.3,29.65-65.07,31.17-10.42-4.31-35.05-25.48-49-41.37-.23-3.86,4.46-8.81,7.55-7.84,19.67,13.61,61.74,36.31,102.34,3.5,29.4-23.76,28.19-54.6,11.23-75.6-12.45-15.4-29.46-30-68.3-25.81l-50.79,5.17c-26.83,2.59-63.26-1-86.45-29.66-26.87-33.25-22.75-81.13,22.75-117.9,10.85-8.77,25.15-16.85,36.23-21.75a60.47,60.47,0,0,0,13.95-7.8c9.94,5.85,28.93,22.91,40.8,37.61.3,3.23-4.45,8.81-7.9,8.12-18.13-13.12-46-28.24-79.56-1.08-34.3,27.72-23.27,56.41-10.26,72.51,16.4,20.3,45.08,21.43,64.54,19l42.14-5.13c33.08-4.17,71.19-1.41,98.05,31.85C10663.9,9940.06,10656.06,9989.79,10610.56,10026.55Z" transform="translate(-4499.86 -2851.68)"/><path class="h" d="M10595.25,9730.89c-31.67-34.46-36.9-38.82-58.58-23.17l-5.91,4.21c-3.21.5-8-6.07-6.95-8.89,14.86-12.43,26.43-22.45,40-34.94l62.29-57.25c21.2-19.49,40.75-37.46,43.82-42.1,7.16,3.81,31.08,25.83,45.8,39.19.5,3.21-4.19,8.74-7.67,8.27-19.28-11-32.92-19.86-54.11-8.33-8.48,4.74-19.39,14.15-34,27.55l-23.86,21.93c-9.94,9.14-9.33,9.8,2.24,22.39l60.9,66.26c8.53,9.28,9.52,8.36,19.46-.77l19.22-17.66c13.92-12.79,23.58-22.89,26.33-27.87s3.25-9.1-2.71-18.9l-9.83-16c-.17-3.51,5.46-8.69,8.92-7.58,7.31,8,17.86,22.09,29.43,34.68,11,11.93,23.86,23.3,30.56,30.59.81,3.54-4.83,8.71-8.31,8.25l-14.86-10.18c-6.81-4.75-13.7-7.58-21.84-3.15-5.86,2.94-14.11,9.92-27,21.79l-19.22,17.66c-9.94,9.14-10.63,10.38-2.71,19l42.94,46.72c16.14,17.56,27.49,27.91,38,28.67,7.63.32,17.94-2.43,47.09-29.23,25.51-23.45,33.9-33.6,37.84-43.95,2.92-8.79,1.21-28.61-6-53.76.8-3.79,6.35-7.06,10.42-5.29,8.34,13.73,23.5,46.85,27.42,59.76-30.43,26.74-60.22,53.51-89.71,80.62l-29.82,27.41c-14.25,13.09-25.21,23.78-44.15,42.41-2.9.83-8.44-3.86-8.28-7.67l10-11c17.36-19,14.45-25.51-17.52-60.29Z" transform="translate(-4499.86 -2851.68)"/><path class="h" d="M10784.39,9552.75c-31.17-29.26-37.67-33.51-51.94-21.59l-11.17,9.27c-3.8.76-9-4.17-7.89-8,15.6-19.92,35.87-43.48,66-75.64,19.09-20.34,38.9-38.16,61.27-45.56,23-8.05,48.53-5.68,71.5,15.88,31.17,29.25,25.14,69.88,16.3,92.44.43,3.49,5.25,4.93,9.42,5.75,67,13.48,109.54,20.72,149.18,16,10.16-1,21.47-5.77,30.44-14,2.2-1,5.13,1.11,4.9,4-1.79,3.88-6.06,9.74-11.91,16-26.18,27.89-50.08,36.92-105.09,29.12-20.15-2.86-55.42-10.66-79.73-14.34-11.84-1.85-20,.32-32.37,13.44-13.86,14.76-14.14,15.73-7.25,22.2l41.34,38.8c34.45,32.33,39,35.38,59.49,18.81l7.45-6c3.49-.43,8.45,5.46,7.59,8.36-14.51,14.15-25.31,25-37.63,38.12-12.93,13.78-23.69,25.9-37.51,41.94-2.83,1-8.37-2.92-8.82-7l6.71-9.13c15.56-21.19,11.91-25.85-22.54-58.18Zm72.17,17.13c5.91,5.54,9.52,8.93,11.75,9.18,1.91-.06,7.18-4.37,22.89-21.1,11.09-11.81,21.48-25.51,23.19-41.8,1.42-15.33-3-33.65-25.29-54.59-25.92-24.33-65.62-31.35-99.8,5.07-19.09,20.34-18.7,22.56-9.52,31.18Z" transform="translate(-4499.86 -2851.68)"/><path class="h" d="M10933.93,9361.38c-26.09-7.85-37.68-8.57-51.62,5l-5.81,5.72c-4.08.74-8.69-3.58-8.16-7.79,8.93-9.56,18.35-20.46,30.55-35.48,12.48-15.37,22.06-27.88,33.28-43.12,3.38-1.31,9.19,2.25,9.3,6.39l-3.56,5.81c-9,14.69-9.21,19.19-6.7,21.81,4.06,2.14,27.75,11.52,63.09,22.25,53.57,16.84,106.79,33.4,160.8,48.28-14.26-29.55-38.32-73.45-50.31-96.52-15.53-29.42-41.66-77.9-51.86-96-5.07-8.75-8.62-12.22-11.07-14.21s-8.08-.76-19.4,10.33l-5.8,5.72c-4.08.74-8.75-4.21-8.16-7.79,8.64-9.21,19.77-22.2,30.55-35.48,9.36-11.53,17.81-22.64,26.47-34.74,3.38-1.31,9,3.23,9.3,6.39l-7.81,11c-6.11,9-6.17,17.6-2.53,28.09,8.47,23.12,25.7,59.72,48.57,104.37l27.64,53.76c20.79,40.07,48,89.4,61.66,110.38a9.07,9.07,0,0,1-2.07,4.69,18,18,0,0,1-5.3,4.39c-17.79-8.07-40-15.69-59.51-21.66Z" transform="translate(-4499.86 -2851.68)"/><path class="h" d="M11143.57,9126.85c-38.81-27.73-45.56-31.45-62.82-11.15l-7.27,8.63c-3,1.15-9.1-4.29-8.63-7.27,13.81-17.78,23.07-30,34.06-45.35,10.46-14.65,19-27.36,31.34-46.19,2.67-1.41,9.78,2.57,9.68,5.81l-5.81,9.68c-13.6,22.91-7.9,28.09,30.91,55.82l130.35,93.13c38.81,27.73,44.46,30.66,62.46,10.89l7.64-8.37c3-1.15,9.1,4.29,8.63,7.27-13.81,17.78-23.07,30-33.54,44.62-11,15.38-19.52,28.09-31.86,46.92-2.67,1.41-9-2-9.68-5.81l5.44-9.94c12.87-23.43,8.27-27.83-30.54-55.56Z" transform="translate(-4499.86 -2851.68)"/><path class="h" d="M11208,8968.72c-4.39-41.45,7-83.63,31.8-123.34,12.85-20.62,35.14-47,51.29-61.89,4-3.87,6.43-6.06,8.19-9.74,9,5.09,34.27,18.18,59.47,29.64,1.48,3.58-1.7,9.54-5.66,10.79-29.54-10.46-70-11.83-104.55,43.54-36.42,58.43-30.31,131.17,48.74,180.43,80.2,50,156.15,26.8,195.19-35.84,30.7-49.27,12.19-91-4.87-113.85-.24-3.86,4.09-9.12,7.72-9,18.19,15,37.21,40.69,40.9,50.94a90.59,90.59,0,0,0-4.51,15.75c-2.18,10.3-13.59,41.37-28.82,65.81-21.42,34.37-48.76,62.93-84.85,79.15-40,17.46-89.55,19.48-138.82-11.22C11236.86,9053.5,11212.48,9011.79,11208,8968.72Z" transform="translate(-4499.86 -2851.68)"/><path class="h" d="M11388.36,8738.15c-41.53-21.58-47.93-23.89-63-1.79l-4.12,6c-2.84,1.56-9.61-3-9.57-6,9.72-16.75,17.17-30.12,25.68-46.49l39-75.07c13.28-25.56,25.52-49.11,26.81-54.53,8,1.13,38,13.68,56.43,21.21,1.57,2.84-1,9.65-4.39,10.4-21.88-3.76-37.72-7.43-53.7,10.63-6.35,7.35-13.39,19.92-22.52,37.49l-14.94,28.75c-6.23,12-5.43,12.4,9.75,20.28l79.86,41.5c11.18,5.81,11.8,4.61,18-7.37l12-23.16c8.71-16.77,14.35-29.56,15.24-35.18s-.05-9.66-9-16.85l-14.71-11.7c-1.36-3.24,2.17-10,5.8-10.17,9.58,5,24.33,14.67,39.5,22.55,14.37,7.47,30.38,13.76,39.16,18.32,2,3-1.56,9.84-5,10.59l-17.44-4.5c-8-2.14-15.46-2.46-21.61,4.49-4.5,4.76-9.88,14.14-18,29.71l-12,23.16c-6.22,12-6.45,13.38,3.93,18.78l56.3,29.26c21.16,11,35.36,16.85,45.47,14,7.28-2.3,16-8.4,34.29-43.54,16-30.75,20.4-43.16,20.57-54.22-.26-9.26-8.63-27.31-24-48.48-.54-3.83,3.56-8.8,8-8.53,12.52,10.06,38.08,36,46.16,46.81-19.47,35.52-38.34,70.85-56.81,106.39l-18.68,35.94c-8.92,17.17-15.58,31-27,54.93-2.44,1.77-9.25-.75-10.4-4.39l5.65-13.8c9.83-23.8,4.88-28.91-37-50.69Z" transform="translate(-4499.86 -2851.68)"/><path class="h" d="M11738.48,8561c-15.21,34.61-35.51,51.74-43.48,57.57-11.23,1-42.84-6.54-62.56-14.22-2-3.33-.09-9.87,3.11-10.43,23.73,3.05,71.52,3.9,92.52-43.89,15.21-34.61,0-61.45-24.75-72.31-18.13-8-39.94-13.13-72.52,8.44l-42.74,27.92c-22.65,14.63-56.63,28.2-90.41,13.36-39.14-17.2-57.47-61.62-33.93-115.18,5.61-12.77,14.6-26.52,22.19-36a60.49,60.49,0,0,0,8.81-13.33c11.52.64,36.22,7.07,53.52,14.67,1.75,2.73.09,9.87-3.29,10.84-22.13-3.33-53.79-4-71.17,35.57-17.74,40.38,5.24,60.79,24.19,69.12,23.9,10.5,49.89-1.67,66.06-12.75l35.08-23.91c27.47-18.9,62.59-33.94,101.73-16.74C11746.14,8459.71,11762,8507.48,11738.48,8561Z" transform="translate(-4499.86 -2851.68)"/></svg>